<?xml version="1.0" encoding="UTF-8" standalone="no"?>
<!DOCTYPE svg PUBLIC "-//W3C//DTD SVG 1.1//EN" "http://www.w3.org/Graphics/SVG/1.1/DTD/svg11.dtd">
<svg width="100%" height="100%" viewBox="0 0 32 32" version="1.1" xmlns="http://www.w3.org/2000/svg" xmlns:xlink="http://www.w3.org/1999/xlink" xml:space="preserve" xmlns:serif="http://www.serif.com/" style="fill-rule:evenodd;clip-rule:evenodd;stroke-linejoin:round;stroke-miterlimit:1.41421;">
    <g transform="matrix(0.222607,0,0,0.222607,-68.1228,3.10851)">
        <circle cx="380.596" cy="69.314" r="38.35" style="fill:rgb(236,236,236);"/>
    </g>
    <g transform="matrix(0.00446228,0.0170711,-0.0170711,0.00446228,23.1039,2.67927)">
        <path d="M986.8,695.8L960.4,649.4C956.1,641.9 945.5,635.7 936.9,635.7L591.3,635.7C582.7,635.7 570.8,630.5 565,624.1L544.4,601.5C538.6,595.1 526.7,589.9 518.1,589.9L400.7,589.9L395.9,531.3C388.6,485.7 345.9,456.9 300.9,466.9L91.8,514C46.8,524.1 10,569.9 10,616L10,802.9C10,848.8 46.8,894.8 91.8,905L300.8,952C345.8,962.1 388.5,933.2 395.8,887.6L400.6,829.1L476.2,829.1C484.8,829.1 496.7,823.9 502.5,817.5L523.1,794.9C528.9,788.5 540.8,783.3 549.4,783.3L573.8,783.3C582.4,783.3 592.7,777 596.5,769.2L599.7,762.6C603.6,754.9 613.8,748.5 622.4,748.5L637.2,748.5C645.8,748.5 654.7,755.3 656.9,763.7L658.1,768.1C660.3,776.4 668.9,783.3 677,783.3C685.2,783.3 695.1,776.9 699,769.2L702.2,762.6C706.1,754.9 716.3,748.5 724.9,748.5L739.7,748.5C748.3,748.5 757.2,755.4 759.4,763.7L760.6,768C762.8,776.4 771.6,783.2 780.3,783.2L937,783.2C945.6,783.2 956.2,777.1 960.4,769.6L986.9,723.1C991.1,715.6 991.1,703.3 986.8,695.8ZM154.2,836.1C115.3,836.1 83.9,779.4 83.9,709.5C83.9,639.6 115.3,582.9 154.2,582.9C193.1,582.9 224.5,639.6 224.5,709.5C224.5,779.4 193,836.1 154.2,836.1Z" style="fill:rgb(48,48,48);fill-rule:nonzero;"/>
    </g>
</svg>
