<?xml version="1.0" encoding="UTF-8" standalone="no"?>
<!DOCTYPE svg PUBLIC "-//W3C//DTD SVG 1.1//EN" "http://www.w3.org/Graphics/SVG/1.1/DTD/svg11.dtd">
<svg width="100%" height="100%" viewBox="0 0 32 32" version="1.1" xmlns="http://www.w3.org/2000/svg" xmlns:xlink="http://www.w3.org/1999/xlink" xml:space="preserve" xmlns:serif="http://www.serif.com/" style="fill-rule:evenodd;clip-rule:evenodd;stroke-linejoin:round;stroke-miterlimit:1.41421;">
    <g transform="matrix(0.0030281,0,0,-0.0030281,0.80131,16.157)">
        <path d="M4812.6,4994C4620.9,4923.1 4482.9,4783.2 4421.6,4591.5C4392.8,4507.2 4390.9,4321.2 4394.8,2839.6L4400.6,1181.6L4448.5,1085.8C4507.9,963.1 4622.9,848.1 4745.6,788.7C4881.7,721.6 5123.2,721.6 5263.1,788.7C5383.9,848.1 5498.9,963.1 5560.2,1085.8L5608.1,1181.6L5608.1,4574.2L5560.2,4670C5498.9,4792.7 5383.9,4907.7 5263.1,4965.2C5138.5,5024.6 4933.4,5038 4812.6,4994Z" style="fill:rgb(48,48,48);fill-rule:nonzero;"/>
        <path d="M2953.4,3261.2C2880.6,3242 2575.8,3048.4 2382.2,2897C854.6,1718.3 304.4,-328.8 1030.9,-2115.2C1421.9,-3077.4 2169.4,-3882.4 3097.1,-4338.6C3520.7,-4545.6 3856.1,-4654.9 4333.4,-4735.4C4678.4,-4794.8 5330.1,-4794.8 5675.1,-4735.4C6140.9,-4654.9 6480.1,-4547.5 6892.2,-4348.2C7992.5,-3813.5 8847.4,-2774.6 9154,-1595.8C9255.6,-1206.7 9284.4,-961.4 9286.3,-505.2C9288.2,-41.3 9265.2,152.2 9161.7,566.3C8895.2,1626.3 8178.4,2596.1 7241.1,3163.5C7047.5,3280.4 6965.1,3293.9 6896.1,3226.8C6853.9,3184.6 6853.9,3173.1 6848.2,2642.2C6840.5,1975.2 6830.9,2011.6 7110.8,1718.3C7363.8,1455.7 7444.3,1358 7578.5,1152.9C7793.2,821.3 7929.3,485.9 8015.5,79.5C8078.8,-213.8 8078.8,-758.1 8017.4,-1064.8C7894.7,-1682 7605.3,-2224.4 7168.3,-2659.5C6725.5,-3104.2 6173.5,-3393.6 5531.4,-3518.2C5265,-3569.9 4716.8,-3564.2 4435,-3508.6C2426.3,-3108.1 1360.6,-949.9 2269.1,874.9C2418.6,1175.8 2566.2,1375.2 2897.8,1718.3C3074.1,1904.2 3124,1965.6 3143.1,2034.6C3160.4,2095.9 3164.2,2270.4 3160.4,2649.9C3154.6,3131 3150.8,3184.7 3120.2,3219.2C3079.9,3263.1 3020.5,3278.5 2953.4,3261.2Z" style="fill:rgb(48,48,48);fill-rule:nonzero;"/>
    </g>
</svg>
