<?xml version="1.0" encoding="UTF-8" standalone="no"?>
<!DOCTYPE svg PUBLIC "-//W3C//DTD SVG 1.1//EN" "http://www.w3.org/Graphics/SVG/1.1/DTD/svg11.dtd">
<svg width="100%" height="100%" viewBox="0 0 32 32" version="1.1" xmlns="http://www.w3.org/2000/svg" xmlns:xlink="http://www.w3.org/1999/xlink" xml:space="preserve" xmlns:serif="http://www.serif.com/" style="fill-rule:evenodd;clip-rule:evenodd;stroke-linejoin:round;stroke-miterlimit:1.41421;">
    <g transform="matrix(0.320701,0,0,0.320701,-102.665,-6.2184)">
        <circle cx="380.596" cy="69.314" r="38.35" style="fill:rgb(236,236,236);"/>
    </g>
    <g transform="matrix(0.454194,0,0,0.523051,-162.536,-20.8752)">
        <path d="M404.711,47.769C404.711,47.326 404.297,46.966 403.786,46.966L359.462,46.966C358.951,46.966 358.536,47.326 358.536,47.769L358.536,49.377C358.536,49.82 358.951,50.181 359.462,50.181L403.786,50.181C404.297,50.181 404.711,49.82 404.711,49.377L404.711,47.769Z" style="fill:rgb(53,53,53);"/>
    </g>
    <g transform="matrix(0.454194,0,0,0.523051,-162.536,-14.7171)">
        <path d="M404.711,47.769C404.711,47.326 404.297,46.966 403.786,46.966L359.462,46.966C358.951,46.966 358.536,47.326 358.536,47.769L358.536,49.377C358.536,49.82 358.951,50.181 359.462,50.181L403.786,50.181C404.297,50.181 404.711,49.82 404.711,49.377L404.711,47.769Z" style="fill:rgb(53,53,53);"/>
    </g>
    <g transform="matrix(0.454194,0,0,0.523051,-162.536,-8.90434)">
        <path d="M404.711,47.769C404.711,47.326 404.297,46.966 403.786,46.966L359.462,46.966C358.951,46.966 358.536,47.326 358.536,47.769L358.536,49.377C358.536,49.82 358.951,50.181 359.462,50.181L403.786,50.181C404.297,50.181 404.711,49.82 404.711,49.377L404.711,47.769Z" style="fill:rgb(53,53,53);"/>
    </g>
</svg>
