<?xml version="1.0" encoding="UTF-8" standalone="no"?>
<!DOCTYPE svg PUBLIC "-//W3C//DTD SVG 1.1//EN" "http://www.w3.org/Graphics/SVG/1.1/DTD/svg11.dtd">
<svg width="100%" height="100%" viewBox="0 0 32 32" version="1.1" xmlns="http://www.w3.org/2000/svg" xmlns:xlink="http://www.w3.org/1999/xlink" xml:space="preserve" xmlns:serif="http://www.serif.com/" style="fill-rule:evenodd;clip-rule:evenodd;stroke-linejoin:round;stroke-miterlimit:1.41421;">
    <g transform="matrix(0.00302326,0,0,-0.00302326,0.877111,16.3272)">
        <path d="M1745.8,4418.1L1745.8,3819.1L1847.2,3807.6C1902.7,3801.9 1988.8,3801.9 2038.6,3807.6L2128.5,3819.1L2128.5,5019L1937.1,5019L1745.7,5019L1745.7,4418.1L1745.8,4418.1Z" style="fill:rgb(48,48,48);fill-rule:nonzero;"/>
        <path d="M7869.6,4408.6L7869.6,3819.2L7971,3807.7C8026.5,3802 8112.6,3802 8162.4,3807.7L8252.4,3819.2L8252.4,4999.9L8061,4999.9L7869.6,4999.9L7869.6,4408.6Z" style="fill:rgb(48,48,48);fill-rule:nonzero;"/>
        <path d="M100,3181.9L100,2990.5L1305.6,2990.5L1305.6,3373.3L702.8,3373.3L100,3373.3L100,3181.9Z" style="fill:rgb(48,48,48);fill-rule:nonzero;"/>
        <path d="M1745.8,129.6L1745.8,-3114.1L8233.2,-3114.1L8233.2,3373.3L4989.5,3373.3L1745.8,3373.3L1745.8,129.6ZM7483,144.9L7486.8,-2348.6L5008.6,-2348.6L2530.4,-2348.6L2530.4,2638.4L5004.8,2638.4L7477.3,2636.5L7483,144.9Z" style="fill:rgb(48,48,48);fill-rule:nonzero;"/>
        <path d="M8677.2,3187.6L8682.9,3000.1L9888.5,3000.1L9894.2,3187.6L9899.9,3373.2L9285.6,3373.2L8671.3,3373.2L8677.2,3187.6Z" style="fill:rgb(48,48,48);fill-rule:nonzero;"/>
        <path d="M119.1,-2941.9L119.1,-3133.3L1267.3,-3133.3L1267.3,-2750.5L693.2,-2750.5L119.1,-2750.5L119.1,-2941.9Z" style="fill:rgb(48,48,48);fill-rule:nonzero;"/>
        <path d="M8692.5,-2941.9L8692.5,-3133.3L9859.9,-3133.3L9859.9,-2750.5L9276.2,-2750.5L8692.5,-2750.5L8692.5,-2941.9Z" style="fill:rgb(48,48,48);fill-rule:nonzero;"/>
        <path d="M1770.6,-3565.8C1751.5,-3573.5 1745.7,-3715.1 1745.7,-4178.2L1745.7,-4779L2128.5,-4779L2128.5,-3573.4L2057.7,-3573.4C2017.5,-3573.4 1942.9,-3569.6 1889.3,-3563.8C1837.6,-3560 1782.1,-3560 1770.6,-3565.8Z" style="fill:rgb(48,48,48);fill-rule:nonzero;"/>
        <path d="M7894.5,-3565.8C7875.4,-3573.5 7869.6,-3711.2 7869.6,-4157.1C7869.6,-4476.7 7875.3,-4742.7 7884.9,-4746.5C7892.6,-4752.2 7978.7,-4752.2 8076.3,-4746.5L8252.4,-4735L8252.4,-3573.4L8181.6,-3573.4C8141.4,-3573.4 8066.8,-3569.6 8013.2,-3563.8C7961.4,-3560 7905.9,-3560 7894.5,-3565.8Z" style="fill:rgb(48,48,48);fill-rule:nonzero;"/>
    </g>
</svg>
