<svg width="25" height="25" viewBox="0 0 25 25" fill="none" xmlns="http://www.w3.org/2000/svg">
<path d="M14.9577 19.1243V16.569C14.9577 16.0265 14.8003 15.7552 14.4857 15.7552C14.3012 15.7552 14.1222 15.842 13.9486 16.0156V19.6615C14.1222 19.8351 14.3012 19.9219 14.4857 19.9219C14.8003 19.9219 14.9577 19.656 14.9577 19.1243ZM17.9525 17.1387H19.0267V16.5853C19.0267 16.0319 18.8477 15.7552 18.4896 15.7552C18.1315 15.7552 17.9525 16.0319 17.9525 16.5853V17.1387ZM8.65885 12.8092V13.9486H7.35677V20.8333H6.15234V13.9486H4.88281V12.8092H8.65885ZM11.9303 14.86V20.8333H10.8398V20.1823C10.4167 20.6706 10.0043 20.9147 9.60286 20.9147C9.24479 20.9147 9.01693 20.7628 8.91927 20.459C8.85417 20.2745 8.82161 19.9816 8.82161 19.5801V14.86H9.89583V19.2546C9.89583 19.515 9.90126 19.656 9.91211 19.6777C9.92296 19.8405 10.0043 19.9219 10.1562 19.9219C10.3733 19.9219 10.6011 19.7537 10.8398 19.4173V14.86H11.9303ZM16.0319 16.6667V19.043C16.0319 19.6072 15.9939 20.0033 15.918 20.2311C15.7878 20.6868 15.5002 20.9147 15.0553 20.9147C14.6756 20.9147 14.3066 20.6923 13.9486 20.2474V20.8333H12.8581V12.8092H13.9486V15.4297C14.2958 14.9957 14.6647 14.7786 15.0553 14.7786C15.5002 14.7786 15.7878 15.0065 15.918 15.4622C15.9939 15.6901 16.0319 16.0916 16.0319 16.6667ZM20.1172 18.7663V18.9128C20.1172 19.2274 20.1063 19.4607 20.0846 19.6126C20.0521 19.8513 19.9707 20.0684 19.8405 20.2637C19.5475 20.6977 19.1135 20.9147 18.5384 20.9147C17.9742 20.9147 17.5347 20.7085 17.2201 20.2962C16.9922 20.0033 16.8783 19.5367 16.8783 18.8965V16.7969C16.8783 16.1567 16.9868 15.6901 17.2038 15.3971C17.5184 14.9848 17.9525 14.7786 18.5059 14.7786C19.0592 14.7786 19.4824 14.9848 19.7754 15.3971C20.0033 15.7118 20.1172 16.1784 20.1172 16.7969V18.0339H17.9525V19.0918C17.9525 19.6452 18.1369 19.9219 18.5059 19.9219C18.7663 19.9219 18.929 19.7808 18.9941 19.4987C18.9941 19.4878 18.9969 19.4499 19.0023 19.3848C19.0077 19.3197 19.0104 19.2301 19.0104 19.1162V18.7663H20.1172ZM12.7767 5.35482V7.89388C12.7767 8.44727 12.6031 8.72396 12.2559 8.72396C11.9086 8.72396 11.735 8.44727 11.735 7.89388V5.35482C11.735 4.79058 11.9086 4.50846 12.2559 4.50846C12.6031 4.50846 12.7767 4.79058 12.7767 5.35482ZM21.4518 16.9596C21.4518 15.0391 21.3487 13.6285 21.1426 12.7279C21.0341 12.2504 20.8008 11.8517 20.4427 11.5316C20.0846 11.2115 19.6723 11.0243 19.2057 10.9701C17.73 10.8073 15.4948 10.7259 12.5 10.7259C9.51606 10.7259 7.28624 10.8073 5.81055 10.9701C5.33312 11.0243 4.91808 11.2115 4.56543 11.5316C4.21278 11.8517 3.9822 12.2504 3.8737 12.7279C3.65668 13.6719 3.54818 15.0825 3.54818 16.9596C3.54818 18.8694 3.65668 20.2799 3.8737 21.1914C3.9822 21.658 4.21278 22.054 4.56543 22.3796C4.91808 22.7051 5.32769 22.895 5.79427 22.9492C7.28082 23.112 9.51606 23.1934 12.5 23.1934C15.4839 23.1934 17.7192 23.112 19.2057 22.9492C19.6723 22.895 20.0819 22.7051 20.4346 22.3796C20.7872 22.054 21.0178 21.658 21.1263 21.1914C21.3433 20.2799 21.4518 18.8694 21.4518 16.9596ZM9.16341 6.36393L10.6283 1.54622H9.40755L8.57747 4.72005L7.71484 1.54622H6.44531C6.52127 1.79579 6.64605 2.17014 6.81966 2.66927L7.21029 3.79232C7.59006 4.90994 7.83963 5.76714 7.95898 6.36393V9.63542H9.16341V6.36393ZM13.8672 7.68229V5.56641C13.8672 4.93707 13.7533 4.46506 13.5254 4.15039C13.2107 3.73806 12.7875 3.5319 12.2559 3.5319C11.7025 3.5319 11.2793 3.73806 10.9863 4.15039C10.7585 4.46506 10.6445 4.93707 10.6445 5.56641V7.68229C10.6445 8.31163 10.7585 8.78364 10.9863 9.09831C11.2793 9.51063 11.7025 9.7168 12.2559 9.7168C12.7875 9.7168 13.2107 9.51063 13.5254 9.09831C13.7533 8.80534 13.8672 8.33333 13.8672 7.68229ZM16.8132 9.63542H17.9036V3.61328H16.8132V8.2194C16.5744 8.55577 16.3466 8.72396 16.1296 8.72396C15.9668 8.72396 15.88 8.63715 15.8691 8.46354C15.8583 8.44184 15.8529 8.30078 15.8529 8.04036V3.61328H14.7624V8.38216C14.7624 8.78364 14.7949 9.08203 14.86 9.27734C14.9794 9.57031 15.2127 9.7168 15.5599 9.7168C15.9505 9.7168 16.3683 9.47266 16.8132 8.98438V9.63542ZM25 4.6875V20.3125C25 21.6037 24.5416 22.7078 23.6247 23.6247C22.7078 24.5416 21.6037 25 20.3125 25H4.6875C3.39627 25 2.29221 24.5416 1.37533 23.6247C0.458442 22.7078 0 21.6037 0 20.3125V4.6875C0 3.39627 0.458442 2.29221 1.37533 1.37533C2.29221 0.458442 3.39627 0 4.6875 0H20.3125C21.6037 0 22.7078 0.458442 23.6247 1.37533C24.5416 2.29221 25 3.39627 25 4.6875Z" fill="white"/>
</svg>
