<svg width="25" height="25" viewBox="0 0 25 25" fill="none" xmlns="http://www.w3.org/2000/svg">
<path d="M15.0893 12.7714C15.0893 11.4203 13.985 10.3209 12.6278 10.3209C11.2706 10.3209 10.1664 11.4204 10.1664 12.7714C10.1664 14.1229 11.2706 15.2221 12.6278 15.2221C13.985 15.2221 15.0893 14.1229 15.0893 12.7714ZM18.7463 0.0151367H6.2535C2.81158 0.0151367 0.0113525 2.80319 0.0113525 6.23006V7.96171H9.19668C10.1659 7.27431 11.3496 6.86824 12.6278 6.86824C13.9059 6.86824 15.0898 7.27431 16.059 7.96171H24.9885V6.23006C24.9885 2.80316 22.1882 0.0151367 18.7463 0.0151367ZM21.2743 5.92601C21.2743 6.30579 20.9623 6.61656 20.5808 6.61656H18.4378C18.0562 6.61656 17.7442 6.30579 17.7442 5.92601V3.79221C17.7442 3.41246 18.0562 3.10166 18.4378 3.10166H20.5808C20.9623 3.10166 21.2743 3.41241 21.2743 3.79221V5.92601V5.92601ZM18.5571 12.7714C18.5571 16.0268 15.8971 18.6748 12.6277 18.6748C9.35828 18.6748 6.69848 16.0268 6.69848 12.7714C6.69848 11.8752 6.90123 11.0253 7.26178 10.2635H0.0113525V18.7701C0.0113525 22.1972 2.81158 24.985 6.2535 24.985H18.7464C22.1883 24.985 24.9885 22.1972 24.9885 18.7701V10.2635H17.9938C18.3544 11.0253 18.5571 11.8752 18.5571 12.7714Z" fill="white"/>
</svg>
