<?xml version="1.0" encoding="UTF-8" standalone="no"?>
<!DOCTYPE svg PUBLIC "-//W3C//DTD SVG 1.1//EN" "http://www.w3.org/Graphics/SVG/1.1/DTD/svg11.dtd">
<svg width="100%" height="100%" viewBox="0 0 32 32" version="1.1" xmlns="http://www.w3.org/2000/svg" xmlns:xlink="http://www.w3.org/1999/xlink" xml:space="preserve" xmlns:serif="http://www.serif.com/" style="fill-rule:evenodd;clip-rule:evenodd;stroke-linejoin:round;stroke-miterlimit:1.41421;">
    <g transform="matrix(0.233951,0,0,0.233951,-67.1344,1.47255)">
        <circle cx="380.596" cy="69.314" r="38.35" style="fill:rgb(236,236,236);"/>
    </g>
    <g transform="matrix(0.0904988,0.0723875,-0.0667653,0.0698192,4.94103,-0.524423)">
        <ellipse cx="91.201" cy="163.439" rx="10.401" ry="10.188"/>
    </g>
    <g transform="matrix(0.0453713,0.106637,-0.0918838,0.0298279,14.6764,5.54547)">
        <ellipse cx="91.201" cy="163.439" rx="10.401" ry="10.188"/>
    </g>
    <g transform="matrix(-0.0253915,0.113072,-0.0920206,-0.0294032,20.8849,17.7399)">
        <ellipse cx="91.201" cy="163.439" rx="10.401" ry="10.188"/>
    </g>
    <g transform="matrix(0.0935953,0.0683366,-0.0636295,0.0726885,6.36723,8.08662)">
        <ellipse cx="91.201" cy="163.439" rx="10.401" ry="10.188"/>
    </g>
    <g transform="matrix(0.114936,0.0148194,-0.0207619,0.0943466,0.653005,9.9134)">
        <ellipse cx="91.201" cy="163.439" rx="10.401" ry="10.188"/>
    </g>
    <g transform="matrix(0.11207,-0.0295012,0.0162504,0.0952274,-2.34157,11.9662)">
        <ellipse cx="91.201" cy="163.439" rx="10.401" ry="10.188"/>
    </g>
    <g transform="matrix(0.108972,-0.0394341,0.0247261,0.093386,-0.810205,11.1374)">
        <ellipse cx="91.201" cy="163.439" rx="10.401" ry="10.188"/>
    </g>
    <g transform="matrix(0.0213264,0,0,0.0213264,6.38607,3.12152)">
        <path d="M448.2,753.1L468,794.2L500,860.9L720,402.7L719.7,402.7C741.4,364.1 754,319.5 754,271.8C753.9,127.2 640.2,10 500,10C359.8,10 246.1,127.2 246.1,271.8C246.1,319.5 258.7,364.1 280.3,402.7L280.1,402.7L448.2,753.1ZM393.4,239.6C393.4,178.9 441.1,129.6 500,129.6C559,129.6 606.7,178.9 606.7,239.6C606.7,300.3 559,349.5 500,349.5C441.1,349.5 393.4,300.3 393.4,239.6Z" style="fill-rule:nonzero;"/>
    </g>
</svg>
