<?xml version="1.0" encoding="UTF-8" standalone="no"?>
<!DOCTYPE svg PUBLIC "-//W3C//DTD SVG 1.1//EN" "http://www.w3.org/Graphics/SVG/1.1/DTD/svg11.dtd">
<svg width="100%" height="100%" viewBox="0 0 32 32" version="1.1" xmlns="http://www.w3.org/2000/svg" xmlns:xlink="http://www.w3.org/1999/xlink" xml:space="preserve" xmlns:serif="http://www.serif.com/" style="fill-rule:evenodd;clip-rule:evenodd;stroke-linejoin:round;stroke-miterlimit:1.41421;">
    <g transform="matrix(0.188117,0,0,0.188117,-52.7241,8.64892)">
        <circle cx="380.596" cy="69.314" r="38.35" style="fill:rgb(236,236,236);"/>
    </g>
    <g transform="matrix(0.0216695,0,0,0.0216695,1.46018,2.88084)">
        <path d="M610,759.4L591.1,799.3C692.4,812.5 753.7,846 753.7,870.7C753.7,902.2 654.9,948 500,948C345.2,948 246.4,902.2 246.4,870.7C246.4,841.4 331.7,800 468,794.2L500,860.9L720,402.7L719.7,402.7C741.4,364.1 754,319.5 754,271.8C753.9,127.2 640.2,10 500,10C359.8,10 246.1,127.2 246.1,271.8C246.1,319.5 258.7,364.1 280.3,402.7L280.1,402.7L448.2,753.1C320.7,761.6 205.5,801.6 205.5,870.6C205.5,949 353.7,990 500,990C646.3,990 794.5,949 794.5,870.7C794.5,812.4 712.3,774.8 610,759.4ZM393.4,239.6C393.4,178.9 441.1,129.6 500,129.6C559,129.6 606.7,178.9 606.7,239.6C606.7,300.3 559,349.5 500,349.5C441.1,349.5 393.4,300.3 393.4,239.6Z" style="fill-rule:nonzero;"/>
    </g>
</svg>
