<?xml version="1.0" encoding="UTF-8" standalone="no"?>
<!DOCTYPE svg PUBLIC "-//W3C//DTD SVG 1.1//EN" "http://www.w3.org/Graphics/SVG/1.1/DTD/svg11.dtd">
<svg width="100%" height="100%" viewBox="0 0 32 32" version="1.1" xmlns="http://www.w3.org/2000/svg" xmlns:xlink="http://www.w3.org/1999/xlink" xml:space="preserve" xmlns:serif="http://www.serif.com/" style="fill-rule:evenodd;clip-rule:evenodd;stroke-linejoin:round;stroke-miterlimit:1.41421;">
    <g transform="matrix(0.266609,0,0,0.266609,-82.1242,0.198069)">
        <circle cx="380.596" cy="69.314" r="38.35" style="fill:rgb(236,236,236);"/>
    </g>
    <g transform="matrix(0.0209552,0,0,0.0209185,2.21975,2.88835)">
        <path d="M990,91.7L990,377.5C990,388.6 986,398.1 977.9,406.2C969.8,414.3 960.2,418.3 949.2,418.3L663.3,418.3C645.4,418.3 632.9,409.8 625.7,392.8C618.5,376.2 621.4,361.5 634.6,348.8L722.6,260.8C659.6,202.5 585.4,173.4 499.9,173.4C455.7,173.4 413.4,182 373.3,199.2C333.1,216.4 298.3,239.7 269,269.1C239.7,298.4 216.4,333.2 199.1,373.4C181.9,413.6 173.3,455.8 173.3,500C173.3,544.2 181.9,586.5 199.1,626.6C216.3,666.8 239.6,701.6 269,730.9C298.3,760.2 333.1,783.5 373.3,800.8C413.5,818 455.7,826.6 499.9,826.6C550.5,826.6 598.4,815.5 643.5,793.4C688.6,771.3 726.7,740 757.7,699.6C760.7,695.3 765.6,692.8 772.4,691.9C778.4,691.9 783.7,693.8 788.4,697.6L875.8,785.6C879.6,789 881.6,793.4 881.9,798.7C882.1,804 880.5,808.8 877.1,813.1C830.7,869.2 774.6,912.7 708.7,943.6C642.7,974.6 573.2,990 500,990C433.6,990 370.3,977 309.9,951.1C249.5,925.2 197.4,890.3 153.6,846.5C109.8,802.7 74.9,750.6 49,690.2C23,629.7 10,566.4 10,500C10,433.6 23,370.3 48.9,309.9C74.8,249.5 109.7,197.4 153.5,153.6C197.3,109.8 249.4,74.9 309.8,49C370.3,23 433.6,10 500,10C562.5,10 623,21.8 681.5,45.4C740,69 792,102.3 837.5,145.3L920.5,63C932.8,49.8 947.7,46.8 965.2,54.1C981.7,61.3 990,73.8 990,91.7Z" style="fill-rule:nonzero;"/>
    </g>
</svg>
