<?xml version="1.0" encoding="UTF-8" standalone="no"?>
<!DOCTYPE svg PUBLIC "-//W3C//DTD SVG 1.1//EN" "http://www.w3.org/Graphics/SVG/1.1/DTD/svg11.dtd">
<svg width="100%" height="100%" viewBox="0 0 32 32" version="1.1" xmlns="http://www.w3.org/2000/svg" xmlns:xlink="http://www.w3.org/1999/xlink" xml:space="preserve" xmlns:serif="http://www.serif.com/" style="fill-rule:evenodd;clip-rule:evenodd;stroke-linejoin:round;stroke-miterlimit:1.41421;">
    <g transform="matrix(0.299321,0,0,0.299321,-94.392,-4.74721)">
        <circle cx="380.596" cy="69.314" r="38.35" style="fill:rgb(236,236,236);"/>
    </g>
    <g transform="matrix(0.00267933,0,0,-0.00267933,0.724657,14.2285)">
        <path d="M6474.2,2471.4C6441.1,2435.8 6324,2232.1 6217.1,2020.8C5247.2,99 4195.9,-1156 2999.4,-1820.4C2844.1,-1907 2816.1,-1914.6 2630.3,-1914.6L2429.2,-1912L2620.1,-1828C3078.3,-1626.9 3429.6,-1410.5 3803.8,-1094.9C4071.1,-873.4 4531.8,-402.5 4743.1,-140.3L4890.8,43L4524.2,435C4002.3,995 3699.4,1379.4 3551.8,1667.1C3503.4,1763.8 3465.3,1807.1 3414.3,1819.8C3327.7,1842.7 3253.9,1832.5 3213.2,1794.4C3197.9,1776.6 3040.1,1478.7 2867,1127.4C2218,-170.9 1739.4,-789.5 718.6,-1662.6C484.4,-1863.7 413.1,-1912.1 324,-1924.8C115.3,-1957.9 31.3,-2128.4 163.6,-2260.8L224.7,-2321.9L5015.5,-2316.8L9803.8,-2309.2L9852.1,-2248.1C9961.6,-2113.2 9875,-1957.9 9673.9,-1924.8C9533.9,-1901.9 9368.4,-1769.5 8917.9,-1319C8202.7,-601.1 7622.3,267 7207.3,1241.9C7085.1,1527 6922.2,1997.9 6858.5,2247.4C6833,2346.7 6789.8,2451.1 6761.8,2484.1C6688,2565.6 6555.6,2560.5 6474.2,2471.4ZM6654.9,1560.1C6828,1068.8 7141.1,414.6 7413.5,-36C7479.7,-142.9 7533.1,-237.1 7533.1,-244.7C7533.1,-249.8 7500,-262.5 7459.3,-272.7C7367.7,-293.1 7242.9,-242.2 7085.1,-122.5C7019,-71.6 6950.2,-30.9 6935,-30.9C6917.2,-30.9 6866.3,-94.5 6820.4,-173.4C6660,-458.5 6540.4,-501.8 6288.4,-359.2L6145.9,-277.8L5967.7,-471.3C5761.5,-692.8 5702.9,-718.2 5540,-647C5428,-596.1 5216.7,-425.5 5216.7,-384.8C5216.7,-374.6 5275.2,-285.5 5349.1,-191.3C5669.8,231.3 6209.5,1107 6453.9,1603.3C6507.4,1712.8 6558.3,1791.7 6568.5,1781.5C6576,1771.4 6616.7,1672.1 6654.9,1560.1ZM3409.3,1140.1C3460.2,1045.9 3831.9,592.8 4106.8,292.4L4381.7,-5.4L4338.4,-71.6C4254.4,-198.9 4058.4,-384.7 3984.6,-402.5C3905.7,-420.3 3862.4,-387.2 3727.5,-204L3676.6,-132.7L3541.7,-173.4C3419.5,-209 3401.7,-209 3343.1,-170.9C3307.5,-148 3261.6,-92 3238.7,-43.6L3198,42.9L3078.4,-84.3C3014.8,-153 2940.9,-209 2915.5,-209C2864.6,-209 2722,-69 2722,-20.6C2722,-2.8 2793.3,137.2 2882.4,290C2969,445.3 3109,710 3193,880.6C3274.5,1051.2 3353.4,1191.2 3363.6,1191.2C3373.7,1191 3394,1168.1 3409.3,1140.1Z" style="fill-rule:nonzero;"/>
    </g>
</svg>
