<?xml version="1.0" encoding="UTF-8" standalone="no"?>
<!DOCTYPE svg PUBLIC "-//W3C//DTD SVG 1.1//EN" "http://www.w3.org/Graphics/SVG/1.1/DTD/svg11.dtd">
<svg width="100%" height="100%" viewBox="0 0 32 32" version="1.1" xmlns="http://www.w3.org/2000/svg" xmlns:xlink="http://www.w3.org/1999/xlink" xml:space="preserve" xmlns:serif="http://www.serif.com/" style="fill-rule:evenodd;clip-rule:evenodd;stroke-linejoin:round;stroke-miterlimit:1.41421;">
    <g transform="matrix(0.264675,0,0,0.264675,-83.5185,-0.161705)">
        <circle cx="380.596" cy="69.314" r="38.35" style="fill:rgb(236,236,236);"/>
    </g>
    <g transform="matrix(0.00201212,0,0,-0.00201212,2.27211,13.7463)">
        <path d="M4789.5,4982.2C4358.9,4866.9 4091.7,4440.1 4180.1,4011.5C4216.6,3840.4 4289.7,3709.7 4416.5,3580.9L4518.4,3479L4518.4,3281L4518.4,3081.1L5479.6,3081.1L5479.6,3479L5585.3,3584.7C5775.6,3775 5866,4042.2 5825.6,4301.7C5748.7,4788 5262.4,5109.1 4789.5,4982.2ZM5154.7,4624.6C5252.7,4595.8 5373.8,4492 5427.6,4390.1C5485.3,4280.5 5485.3,4074.9 5427.6,3963.4C5379.5,3873.1 5270,3769.2 5179.6,3732.7C5143.1,3717.3 5062.3,3705.8 4998.9,3705.8C4862.4,3705.8 4783.6,3734.6 4683.7,3821.1C4572.2,3919.1 4529.9,4019.1 4529.9,4176.7C4529.9,4278.6 4539.5,4330.5 4572.2,4392C4620.3,4484.3 4735.6,4588.1 4827.9,4620.7C4912.5,4651.6 5060.5,4653.5 5154.7,4624.6Z" style="fill-rule:nonzero;"/>
    </g>
    <g transform="matrix(0.00201212,0,0,-0.00201212,2.27211,13.7463)">
        <path d="M4585.7,2838.9C4170.5,2796.6 3711.1,2660.1 3313.2,2466C1998.3,1822 1175.6,503.3 1173.7,-959.6C1171.8,-2933.8 2657.7,-4571.5 4631.9,-4771.5C5952.5,-4904.1 7269.2,-4319.8 8068.9,-3247.1C8732.1,-2357.1 8976.2,-1222.9 8735.9,-142.6C8313,1762.4 6533,3040.7 4585.7,2838.9ZM5412.3,1993.1C5758.3,1948.9 6192.7,1799 6492.6,1622.1C6756,1466.4 6930.9,1328 7153.9,1095.4C7845.9,380.3 8126.6,-605.8 7920.9,-1592C7724.8,-2535.8 7032.8,-3362.4 6133.2,-3727.6C5748.7,-3883.3 5429.7,-3944.8 4999.1,-3944.8C4574.3,-3944.8 4259,-3885.2 3880.3,-3733.3C3488.2,-3577.6 3157.5,-3352.7 2842.3,-3025.9C1556.3,-1693.8 1792.7,482.2 3334.4,1518.4C3936,1921.9 4668.4,2089.2 5412.3,1993.1Z" style="fill-rule:nonzero;"/>
    </g>
    <g transform="matrix(0.00201212,0,0,-0.00201212,2.27211,13.7463)">
        <path d="M3691.9,1527.9C3691.9,1510.6 3866.8,1041.5 4078.3,482.2C4291.7,-75.3 4470.4,-548.1 4474.3,-565.4C4480.1,-582.7 4458.9,-648.1 4430.1,-709.6C4382,-803.8 4374.4,-844.2 4374.4,-974.9C4374.4,-1169.1 4435.9,-1305.5 4578.2,-1434.3C4958.8,-1776.5 5575.9,-1488.1 5575.9,-967.2C5575.9,-780.7 5527.8,-665.4 5393.3,-528.9C5264.5,-400.1 5149.2,-350.1 4981.9,-350.1L4893.5,-350.1L4464.8,357.3C3876.4,1328 3743.8,1539.4 3716.8,1549C3703.4,1552.9 3691.9,1543.3 3691.9,1527.9Z" style="fill-rule:nonzero;"/>
    </g>
    <g transform="matrix(0.00201212,0,0,-0.00201212,2.27211,13.7463)">
        <path d="M7490.3,2589L7296.2,2396.8L7352,2354.5C7692.2,2096.9 7976.7,1825.9 8190.1,1554.8L8315.1,1397.2L8501.6,1587.5C8780.3,1868.1 8793.8,1822 8261.3,2354.5C7728.6,2888.8 7774.8,2873.5 7490.3,2589Z" style="fill-rule:nonzero;"/>
    </g>
</svg>
