<?xml version="1.0" encoding="UTF-8" standalone="no"?>
<!DOCTYPE svg PUBLIC "-//W3C//DTD SVG 1.1//EN" "http://www.w3.org/Graphics/SVG/1.1/DTD/svg11.dtd">
<svg width="100%" height="100%" viewBox="0 0 32 32" version="1.1" xmlns="http://www.w3.org/2000/svg" xmlns:xlink="http://www.w3.org/1999/xlink" xml:space="preserve" xmlns:serif="http://www.serif.com/" style="fill-rule:evenodd;clip-rule:evenodd;stroke-linejoin:round;stroke-miterlimit:1.41421;">
    <g transform="matrix(0.221171,0,0,0.221171,-61.4776,2.23866)">
        <circle cx="380.596" cy="69.314" r="38.35" style="fill:rgb(236,236,236);"/>
    </g>
    <g transform="matrix(0.0273458,0,0,0.0273458,0.543955,0.373221)">
        <path d="M975.8,459.6C847.6,300.1 681.5,203.9 500,203.9C318.5,203.9 152.4,300.1 24.3,459.6C5.3,483.2 5.3,516.8 24.3,540.5C152.4,699.9 318.5,796.1 500,796.1C681.5,796.1 847.6,699.9 975.8,540.4C994.7,516.8 994.7,483.2 975.8,459.6ZM747.5,549.3C728.7,648.4 648.6,728.3 549.4,747.1C371.7,780.7 218.9,628.1 252.5,450.7C271.3,351.6 351.4,271.6 450.6,252.8C628.3,219.2 781.2,371.9 747.5,549.3Z" style="fill-rule:nonzero;"/>
    </g>
    <g transform="matrix(0.0273458,0,0,0.0273458,0.543955,0.373221)">
        <path d="M557.4,499.7C532.2,493.7 511.2,473.5 504.5,448.5C497.4,422.3 504.5,397.5 519.6,379.9C503.1,377.3 485.8,377.7 467.2,382.8C424.8,394.5 390.7,429.3 381.3,472.2C363.8,551.4 423.7,621.5 500,621.5C567.3,621.5 621.8,567.1 621.8,499.9C621.8,495.3 621.5,490.8 621,486.3C604.1,499.5 581.4,505.5 557.4,499.7Z" style="fill-rule:nonzero;"/>
    </g>
</svg>
