<?xml version="1.0" encoding="UTF-8" standalone="no"?>
<!DOCTYPE svg PUBLIC "-//W3C//DTD SVG 1.1//EN" "http://www.w3.org/Graphics/SVG/1.1/DTD/svg11.dtd">
<svg width="100%" height="100%" viewBox="0 0 32 32" version="1.1" xmlns="http://www.w3.org/2000/svg" xmlns:xlink="http://www.w3.org/1999/xlink" xml:space="preserve" xmlns:serif="http://www.serif.com/" style="fill-rule:evenodd;clip-rule:evenodd;stroke-linejoin:round;stroke-miterlimit:1.41421;">
    <g transform="matrix(0.222607,0,0,0.222607,-66.3382,3.8721)">
        <circle cx="380.596" cy="69.314" r="38.35" style="fill:rgb(236,236,236);"/>
    </g>
    <g transform="matrix(0.0181459,-0.00455007,0.00455007,0.0181459,1.8858,7.74062)">
        <path d="M798.3,178.1C779.4,141.7 754.5,111.5 723.7,87.5C692.9,63.5 658,44.5 619.1,30.7C580.1,16.9 540.4,10 500,10C459.6,10 419.9,16.9 381,30.7C342.1,44.5 307.2,63.5 276.4,87.5C245.6,111.5 220.7,141.7 201.8,178.1C182.9,214.5 173.4,253.7 173.4,295.8C173.4,361.7 195.3,418.7 239.1,466.8C258.2,487.6 274.1,506.1 286.6,522.3C299.2,538.5 311.8,558.8 324.6,583.2C337.4,607.7 344.6,630.5 346.3,651.8C326.3,663.7 316.3,681.1 316.3,704.1C316.3,719.8 321.6,733.5 332.3,744.9C321.7,756.4 316.3,770 316.3,785.7C316.3,807.8 325.9,825 345,837.4C339.5,847.2 336.7,857.2 336.7,867.4C336.7,887 343.4,902.1 356.8,912.7C370.2,923.3 386.7,928.7 406.2,928.7C414.7,947.4 427.5,962.3 444.5,973.4C461.5,984.5 480,990 500,990C520,990 538.5,984.5 555.5,973.4C572.5,962.3 585.3,947.5 593.8,928.7C613.4,928.7 629.9,923.4 643.2,912.7C656.6,902.1 663.3,887 663.3,867.4C663.3,857.2 660.5,847.2 655,837.4C674.1,825.1 683.7,807.8 683.7,785.7C683.7,770 678.4,756.3 667.7,744.9C678.3,733.4 683.7,719.8 683.7,704.1C683.7,681.1 673.7,663.7 653.7,651.8C655.4,630.5 662.6,607.7 675.4,583.2C688.2,558.7 700.8,538.4 713.4,522.3C726,506.1 741.8,487.6 760.9,466.8C804.7,418.7 826.6,361.7 826.6,295.8C826.7,253.7 817.2,214.5 798.3,178.1ZM701.6,410.7C697.3,415.4 690.9,422.4 682.1,431.7C673.4,441.1 666.9,448.1 662.6,452.7C608.2,517.8 578.2,581.2 572.6,642.8L427.3,642.8C421.8,581.1 391.8,517.8 337.3,452.7C333,448 326.6,441 317.8,431.7C309.1,422.3 302.6,415.3 298.3,410.7C269.4,377.1 254.9,338.8 254.9,295.9C254.9,265.3 262.2,236.8 276.9,210.4C291.6,184 310.7,162.4 334.3,145.6C357.9,128.8 384.1,115.6 412.8,106C441.5,96.4 470.5,91.6 499.9,91.6C529.3,91.6 558.3,96.4 587,106C615.7,115.6 641.9,128.7 665.5,145.6C689.1,162.4 708.2,184 722.9,210.4C737.6,236.8 744.9,265.3 744.9,295.9C745,338.8 730.5,377.1 701.6,410.7Z" style="fill:rgb(48,48,48);fill-rule:nonzero;"/>
    </g>
</svg>
