<?xml version="1.0" encoding="UTF-8" standalone="no"?>
<!DOCTYPE svg PUBLIC "-//W3C//DTD SVG 1.1//EN" "http://www.w3.org/Graphics/SVG/1.1/DTD/svg11.dtd">
<svg width="100%" height="100%" viewBox="0 0 32 32" version="1.1" xmlns="http://www.w3.org/2000/svg" xmlns:xlink="http://www.w3.org/1999/xlink" xml:space="preserve" xmlns:serif="http://www.serif.com/" style="fill-rule:evenodd;clip-rule:evenodd;stroke-linejoin:round;stroke-miterlimit:1.41421;">
    <g transform="matrix(0.235336,0,0,0.235336,-67.2615,3.23955)">
        <circle cx="380.596" cy="69.314" r="38.35" style="fill:rgb(236,236,236);"/>
    </g>
    <g transform="matrix(0.00244983,0,0,-0.00244983,0.42314,12.9372)">
        <path d="M235.5,3842.5C91.4,3755.2 100.2,3936.3 100.2,784.7C100.2,-2417.2 89.3,-2185.8 255.2,-2268.7C327.2,-2305.8 384,-2312.4 667.7,-2312.4L995,-2312.4L995,-1723.2L842.2,-1723.2L689.4,-1723.2L689.4,3318.7L7957.4,3318.7L7957.4,3155L7957.4,2989.1L8247.7,2995.7L8535.8,3002.2L8542.3,3292.5C8548.8,3626.4 8529.2,3722.5 8437.5,3809.8L8369.9,3875.3L4338.7,3881.8C325,3886.1 307.5,3886.1 235.5,3842.5Z" style="fill:rgb(48,48,48);fill-rule:nonzero;"/>
    </g>
    <g transform="matrix(0.00244983,0,0,-0.00244983,0.42314,12.9372)">
        <path d="M1638.9,2511.1C1580,2487.1 1505.8,2404.2 1477.4,2329.9C1459.9,2286.3 1453.4,1387 1453.4,-573C1453.4,-3292.5 1455.6,-3419.1 1494.9,-3504.2C1575.7,-3681 1191.5,-3665.7 5705.1,-3661.3L9721,-3654.8L9779.9,-3600.2C9906.5,-3484.5 9899.9,-3643.9 9899.9,-562C9899.9,2102.9 9897.7,2286.3 9860.6,2358.3C9840.9,2399.8 9790.7,2456.5 9749.3,2482.7L9675.1,2532.9L5678.8,2530.7C3481,2530.7 1662.9,2522 1638.9,2511.1ZM9310.6,-577.3L9310.6,-3098.2L5676.6,-3098.2L2042.6,-3098.2L2042.6,1943.6L9310.6,1943.6L9310.6,-577.3Z" style="fill:rgb(48,48,48);fill-rule:nonzero;"/>
    </g>
    <g transform="matrix(0.00244983,0,0,-0.00244983,0.42314,12.9372)">
        <path d="M3729.8,944C3424.2,834.9 3258.4,605.7 3258.4,289.2C3258.4,151.7 3267.1,112.4 3332.6,-14.2C3553,-448.5 4118.3,-520.5 4447.9,-153.9C4751.3,184.4 4631.2,736.6 4212.2,919.9C4070.3,983.3 3867.3,994.2 3729.8,944Z" style="fill:rgb(48,48,48);fill-rule:nonzero;"/>
    </g>
    <g transform="matrix(0.00244983,0,0,-0.00244983,0.42314,12.9372)">
        <path d="M5764,-372.1C5417,-913.4 5120.1,-1360.8 5104.8,-1367.4C5089.5,-1374 5030.6,-1367.4 4971.7,-1354.3C4912.8,-1343.4 4733.8,-1321.6 4574.5,-1308.5C3670.9,-1229.9 2970.3,-1511.5 2712.8,-2052.8C2671.3,-2142.3 2629.9,-2247.1 2621.1,-2284.2L2605.8,-2356.2L5687.6,-2356.2C7381.3,-2356.2 8765,-2347.5 8760.7,-2338.7C8758.5,-2327.8 8588.3,-1828 8385.3,-1225.6C8180.1,-623.2 8007.7,-129.9 8001.2,-129.9C7994.7,-129.9 7872.3,-291.4 7730.4,-490C7588.5,-688.6 7466.3,-850.1 7457.6,-850.1C7448.9,-850.1 7211,-520.5 6929.4,-118.9C6647.8,282.7 6414.3,610.1 6407.7,610.1C6401.3,612.2 6113.2,169.2 5764,-372.1Z" style="fill:rgb(48,48,48);fill-rule:nonzero;"/>
    </g>
</svg>
