<?xml version="1.0" encoding="UTF-8" standalone="no"?>
<!DOCTYPE svg PUBLIC "-//W3C//DTD SVG 1.1//EN" "http://www.w3.org/Graphics/SVG/1.1/DTD/svg11.dtd">
<svg width="100%" height="100%" viewBox="0 0 32 32" version="1.1" xmlns="http://www.w3.org/2000/svg" xmlns:xlink="http://www.w3.org/1999/xlink" xml:space="preserve" xmlns:serif="http://www.serif.com/" style="fill-rule:evenodd;clip-rule:evenodd;stroke-linejoin:round;stroke-miterlimit:1.41421;">
    <g transform="matrix(0.217442,0,0,0.217442,-60.7423,4.16514)">
        <circle cx="380.596" cy="69.314" r="38.35" style="fill:rgb(236,236,236);"/>
    </g>
    <g transform="matrix(0.0613665,0,0,0.0237858,2.77233,8.62122)">
        <path d="M183.423,105.677C159.111,85.075 65.114,49.989 55.074,38.505C42.996,26.509 34.604,8.354 31.344,-18.376C30.119,-40.746 35.043,-65.518 52.773,-95.292C73.072,-126.668 106.878,-153.505 152.247,-176.456C112.826,-176.371 78.06,-165.948 47.975,-145.124C7.369,-118.923 -15.35,-76.173 -18.249,-15.087C-18.857,13.742 -16.839,39.996 -12.961,64.424C-13.607,65.901 -3.728,103.113 -1.184,108.372C-1.055,108.639 0.532,113.905 0.567,113.991C37.743,202.803 67.338,200.041 119.599,285.225C127.281,297.746 129.245,326.436 130.098,342.519C132.96,396.513 103.932,455.148 40.097,514.129L322.742,514.129C324.151,297.935 277.793,161.648 183.423,105.677Z" style="fill:rgb(48,48,48);"/>
    </g>
</svg>
