<?xml version="1.0" encoding="UTF-8" standalone="no"?>
<!DOCTYPE svg PUBLIC "-//W3C//DTD SVG 1.1//EN" "http://www.w3.org/Graphics/SVG/1.1/DTD/svg11.dtd">
<svg width="100%" height="100%" viewBox="0 0 32 32" version="1.1" xmlns="http://www.w3.org/2000/svg" xmlns:xlink="http://www.w3.org/1999/xlink" xml:space="preserve" xmlns:serif="http://www.serif.com/" style="fill-rule:evenodd;clip-rule:evenodd;stroke-linejoin:round;stroke-miterlimit:1.41421;">
    <g transform="matrix(0.150001,0,0,0.150001,-31.5741,7.18612)">
        <circle cx="380.596" cy="69.314" r="38.35" style="fill:rgb(224,224,224);"/>
    </g>
    <g transform="matrix(0.0141425,0,0,0.0141425,11.5146,6.60354)">
        <path d="M10,169.7C10,289.2 10,815.3 10,826.4C10,838.9 9.7,854.2 33.5,854.2C57.3,854.2 964.1,854.2 964.1,854.2C964.1,854.2 990,855.9 990,819.6C990,688.5 990,227.9 990,192.1C990,150.3 985.6,146.4 939.4,145.7C917.3,145.7 165.8,145.7 30.7,145.7C13.7,146.5 9.7,149.9 10,169.7ZM59.1,763.5L337.6,543.3L407.4,604.2C445.5,637.4 484.8,640.9 499.9,640.9C515,640.9 554.4,637.3 592.4,604.2L661.7,543.8L940.7,764.4L940.7,805.1L59.1,805.1L59.1,763.5ZM940.9,702.1L699.4,511.1L940.9,300.6L940.9,702.1ZM940.9,235.7L560.4,567.3C534.8,589.6 509.7,592 500,592C490.4,592 465.2,589.6 439.6,567.3L343,483L340,479.2L339.3,479.8L59.1,235.7L59.1,194.9L940.8,194.9L940.8,235.7L940.9,235.7ZM59.1,300.6L300.1,510.6L59.1,701.2L59.1,300.6Z" style="fill:rgb(48,48,48);fill-rule:nonzero;"/>
    </g>
    <g transform="matrix(0.255722,0,0,0.255722,-203.117,-1111.12)">
        <rect x="797.15" y="4415.23" width="34.091" height="2.864" style="fill:rgb(48,48,48);"/>
    </g>
    <g transform="matrix(0.18284,0,0,0.255722,-142.535,-1113.83)">
        <rect x="797.15" y="4415.23" width="34.091" height="2.864" style="fill:rgb(48,48,48);"/>
    </g>
    <g transform="matrix(0.09142,0,0,0.255722,-66.5424,-1116.55)">
        <rect x="797.15" y="4415.23" width="34.091" height="2.864" style="fill:rgb(48,48,48);"/>
    </g>
</svg>
