<svg xmlns="http://www.w3.org/2000/svg" width="620" height="1184" fill="none" xmlns:v="https://vecta.io/nano"><g clip-path="url(#F)"><g filter="url(#A)"><path d="M297.239 352.741h35.877c8.838 270.899-2.884 645.667 12.266 819.449-39.841 13.03-44.722 13.42-79.369.99 17.315-176.931 20.55-537.906 31.226-820.436v-.003z" fill="#e0c6aa"/></g><path d="M335.273 601.285c-15.417 7.424-30.088 8.03-44.269 4.242l-2.526 110.186c15.94 4.372 31.561 3.196 46.844-3.666l-.049-110.762zm.024 120.137c-16.416 7.915-31.981 8.134-47.015 3.509l-2.845 110.083c17.016 5.415 33.663 4.491 49.934-2.828l-.074-110.764zm.098 115.948c-17.567 9.007-34.136 9.133-50.13 3.876l-4.121 109.663c18.904 6.746 37.367 5.702 55.355-3.194l-1.104-110.345zm1.202 116.21c-19.621 10.485-38.019 9.851-55.722 2.932l-6.77 108.358c22.687 10.35 44.739 9.6 66.122-2.31-1.752-33.8-2.889-70.433-3.63-108.98zm-2.379-467.928c-13.895 6.028-27.191 6.596-40.075 3.456l-3.016 110.135c14.999 3.882 29.705 2.73 44.122-3.352l-1.031-110.239zm6.278 582.208c-23.739 13.98-45.664 11.55-66.709 1.09-3.185 38.53-4.743 71.98-6.063 105.84 34.06 10.5 46.475 10.91 77.441-.63l-4.669-106.3z" fill="url(#B)"/><path d="M445.059 33.04c-.442-.055-1.021.338-1.764 1.18-11.346 12.861-26.19 40.186-41.686 73.646 5.325-24.401 8.106-44.153 6.778-55.307-1.015-8.518-16.968 21.914-28.039 55.478-.107-8.015-.795-14.512-2.182-19.054-2.627-8.605-19.511 35.616-25.253 73.645-1.264-11.412-3.273-20.174-6.174-25.293-3.121-5.505-11.097 20.401-14.855 49.069-2.749-8.718-5.841-15.203-9.331-18.717-1.116-1.124-2.311-.047-3.436 2.656-4.903-16.731-10.6-28.473-12.951-25.082-3.289 4.742-5.246 13.496-6.174 25.082-8.959-31.677-24.86-63.403-27.157-56.743-1.633 4.735-2.107 12.077-1.625 21.331-12.946-28.695-28.848-53.14-29.617-46.075-.491 4.509-.032 10.669 1.253 18.17-16.334-28.144-34.492-50.876-33.934-43 .655 9.268 5.185 23.928 12.302 41.86l-.511-.801c-24.348-35.329-58.78-68.715-55.38-57.627 4.866 15.875 20.65 42.762 41.5 73.73-18.697-18.179-34.748-31.728-45.494-37.265-8.206-4.229 9.663 25.306 33.191 53.074-7.226-4.603-13.421-7.896-18.29-9.528-9.225-3.091 20.429 35.183 51.065 61.632-10.938-5.736-19.959-9.391-26.229-10.243-6.743-.917 11.761 20.108 35.189 39.627-9.398-3.068-17.01-4.566-22.189-4.047-4.2.421 4.036 9.374 17.408 20.066 2.633 4.716 6.377 10.04 11.095 15.808-28.451-19.092-69.225-35.014-67.08-28.455 1.757 5.372 7.733 12.508 16.712 20.783-32.131-14.775-68.851-24.849-64.85-18.886 2.843 4.237 8.548 9.402 16.526 15.176-32.291-10.087-62.994-15.343-57.655-10.16 3.409 3.309 8.773 7.06 15.83 11.13-34.069-7.41-64.822-10.042-57.935-5.228 8.104 5.665 23.218 12.255 42.755 19.223l-1.021-.168c-45.302-6.679-95.629-5.162-84.21-.169 16.351 7.148 49.045 14.087 88.434 20.277-27.379.774-49.188 2.809-60.859 6.492-8.912 2.813 27.324 10.058 65.825 12.31-8.576 1.896-15.399 3.991-19.961 6.239-8.643 4.259 42.622 9.244 84.72 5.775-11.962 3.683-20.925 7.411-25.764 11.129-5.206 3.999 24.378 5.228 55.984 2.108-8.737 4.392-15.026 8.6-18.012 12.478-4.207 5.464 37.671 2.403 70.935-6.956-16.511 9.83-27.834 18.958-30.314 26.221-1.564 4.583 20.883 1.58 44.146-5.733-14.937 22.14-24.918 48.279-18.894 47.511 7.273-.93 17.182-7.72 28.503-18.296-16.199 28.559-26.936 67.684-20.147 64.71 5.558-2.435 12.357-8.922 19.915-18.295-10.918 31.166-15.962 65.71-10.12 61.167 4.15-3.227 8.788-9.209 13.787-17.284-5.796 30.56-6.59 58.945-1.81 53.326 3.051-3.586 6.268-9.001 9.563-15.977-2.602 31.725-.51 59.724 3.621 52.78 4.86-8.171 9.571-22.768 14.019-41.395v.927c-.009 41.679 9.677 86.537 13.277 75.501 5.152-15.8 7.513-46.2 7.938-82.497 5.223 24.418 10.886 43.667 16.758 53.539 4.484 7.538 6.594-26.125 2.878-60.999 3.435 7.383 6.761 13.174 9.935 16.904 6.012 7.065 3.22-39.711-7.289-76.892 5.919 10.133 11.432 17.587 16.248 21.331 5.18 4.026 1.812-22.67-6.638-50.502 6.172 7.129 11.74 12.066 16.433 14.122 6.613 2.897-3.443-34.115-18.94-62.432 6.624 6.574 12.866 11.984 18.476 15.935l.093.084c13.285 11.599 25.209 18.923 26.043 15.134 1.437-6.541-2.36-17.322-9.61-30.521 24.326 23.324 61.426 45.456 60.58 38.656-.693-5.569-5.198-13.526-12.441-23.101 28.782 19.66 62.998 35.427 60.21 28.918-1.981-4.623-6.63-10.582-13.37-17.536 29.845 15.07 59.081 25.134 54.825 19.181-2.718-3.8-7.301-8.361-13.463-13.49 32.112 12.717 61.929 20.169 56.08 14.333-6.886-6.867-20.502-15.745-38.391-25.715.326.104.649.233.975.337 43.314 13.786 93.1 20.307 82.816 13.574-14.718-9.639-45.512-21.699-83.095-34.061 27.104 3.595 48.982 5.099 61.184 3.33 9.317-1.351-24.965-14.294-62.439-22.638 8.809-.502 15.919-1.463 20.844-2.95 9.331-2.818-40.19-15.854-82.305-19.139 12.487-1.723 22.045-3.981 27.528-6.871 5.897-3.109-22.966-9.044-54.685-11.003 9.45-2.933 16.412-6.058 20.101-9.401 5.196-4.71-36.612-8.389-71.165-4.468 18.152-7.05 31.067-14.238 34.91-20.994 1.647-2.896-8.342-4.069-22.515-3.456 14.381-12.006 23.931-23.338 19.636-24.324-7.121-1.635-19.144 1.259-34.027 7.166 26.882-20.883 53.109-53.413 45.585-52.99-6.16.347-15.145 4.033-26.043 10.117 23.078-25.109 42.161-55.359 34.863-53.157-5.186 1.562-12.019 5.494-20.008 11.255 18.083-26.305 30.624-52.333 23.861-48.775-4.317 2.272-9.552 6.221-15.505 11.55 15.61-28.48 25.33-55.135 18.615-50.124-7.9 5.898-18.351 17.835-30.221 33.556l.418-.886c15.725-34.969 25.157-75.099 20.89-75.627l-.003-.007zM287.78 224.257c.024.074.023.138.046.211.029.97.092 1.953.14 2.951l-2.832-1.981c1.218-.079 2.111-.441 2.646-1.181zm66.43 2.235c.782.852 1.672 1.302 2.646 1.264-1.027 1.19-1.947 2.297-2.786 3.373l.14-4.637zM228.776 286.52c1.507.641 2.928 1.186 4.271 1.686l-5.06.927c.738-.883 1.048-1.76.789-2.613zm173.895 39.33c-.898.752-1.344 1.563-1.254 2.445-1.36-.872-2.627-1.655-3.853-2.361l5.107-.084zm-93.494 49.743l1.763 4.385c-1.078-.521-2.085-.623-2.97-.253.455-1.454.878-2.848 1.207-4.132z" fill="#3f553c"/><g fill="#649537"><path d="M314.925 277.492c.789-1.816.396-3.553-1.325-5.102-.707-.637-1.426-1.194-2.199-1.677 3.459-4.895.676-18.028-7.908-33.913-11.236-20.792-36.076-44.446-37.824-39.407-1.737 5.01.216 13.713 4.657 24.605-16.862-20.136-43.828-40.327-43.8-34.938.022 4.413 2.795 11.003 7.57 19.058-20.693-17.61-46.009-32.589-44.436-27.28 1.118 3.773 4.204 8.808 8.83 14.771-21.954-14.099-43.908-24.23-41.133-19.241 1.772 3.184 4.948 7.097 9.292 11.588-23.949-12.432-46.575-20.574-42.542-15.554 4.748 5.906 14.577 13.904 27.65 23.089l-.735-.318c-32.618-14.133-71.011-23.088-63.592-17.023 10.62 8.681 33.611 20.49 61.877 33.068-20.882-4.905-37.856-7.756-47.574-7.312-7.419.339 18.205 13.096 46.76 22.519-6.943-.286-12.604-.094-16.599.691-7.568 1.486 29.973 15.537 62.635 21.357-9.937.386-17.63 1.419-22.193 3.259-4.907 1.979 17.152 8.837 41.801 12.817-7.672 1.568-13.432 3.493-16.632 5.825-4.509 3.286 27.87 9.365 55.286 8.961-14.869 4.119-25.642 8.75-29.282 13.741-3.211 4.405 32.664 7.044 57.53 1.885 18.648-3.869 31.517-10.02 33.884-15.468l.003-.001zm-61.048-28.738l-4.012-.319c.773-.52 1.188-1.127 1.199-1.824a75.14 75.14 0 0 0 2.813 2.143z"/><path d="M292.596 302.278c-1.488-1.409-3.39-1.809-5.658-1.036-.933.318-1.79.68-2.596 1.115-3.455-4.896-17.76-8.081-37.237-7.626-25.497.596-59.535 11.223-55.22 14.768s13.813 5.544 26.565 6.425c-27.186 5.512-58.644 19.34-53.241 21.567 4.425 1.823 12.177 2.285 22.23 1.706-26.258 9.728-51.812 24.368-45.844 25.285 4.243.652 10.569.206 18.468-1.123-23.271 12.234-42.57 26.123-36.42 25.914 3.926-.133 9.168-1.121 15.474-2.832-22.435 14.576-40.025 29.851-33.317 28.615 7.892-1.453 19.997-6.227 34.644-13.182l-.625.474c-27.755 21.019-52.739 48.968-43.573 45.375 13.12-5.141 34.532-19.186 58.914-37.261-13.623 15.186-23.559 28.004-27.17 36.206-2.758 6.264 20.703-9.558 42.049-29.19-3.184 5.61-5.353 10.362-6.235 13.986-1.671 6.866 28.056-18.25 47.51-42.775-3.761 8.361-5.937 15.141-6 19.674-.067 4.875 16.002-10.466 30.271-29.146-1.633 6.986-2.111 12.542-1.112 16.156 1.407 5.092 21.002-19.091 32.038-41.884-2.083 13.989-1.944 24.812 1.533 29.899 3.067 4.488 20.679-24.017 25.892-46.69 3.911-17.004 3.124-30.193-1.34-34.42zm-54.234 38.387l-1.994 3.178c-.197-.855-.631-1.451-1.324-1.751 1.198-.483 2.297-.96 3.318-1.427z"/></g><use href="#G" fill="url(#C)"/><use href="#G" opacity=".35" fill="#000"/><use href="#H" fill="url(#D)"/><g fill="#649537"><path d="M363.287 296.74c.524 1.893 1.957 3.097 4.349 3.447.983.143 1.926.216 2.863.2.328 5.808 11.012 15.014 28.176 23.387 22.468 10.962 57.83 17.056 56.02 12.036-1.8-4.992-8.969-11.033-19.564-17.54 26.62 7.452 61.489 9.607 58.012 5.239-2.848-3.576-9.328-7.467-18.375-11.49 28.115 3.374 58.302 2.163 53.616-1.32-3.329-2.476-9.066-4.937-16.651-7.339 26.888-.148 51.232-3.521 45.777-6.109-3.482-1.652-8.574-3.153-14.985-4.507 27.442-2.557 51.058-7.904 44.558-9.851-7.647-2.291-20.767-3.595-37.282-4.149l.801-.129c35.581-5.76 72.535-18.784 62.614-19.791-14.2-1.441-40.462 1.116-71.507 5.839 20.121-7.055 35.748-13.714 43.363-19.213 5.814-4.199-23.198-1.02-52.452 6.42 5.827-3.439 10.306-6.589 13.05-9.34 5.2-5.21-34.329 3.219-64.616 15.761 7.831-5.568 13.422-10.477 15.952-14.385 2.72-4.204-19.611 1.886-42.2 11.685 5.232-5.332 8.681-9.943 9.786-13.531 1.558-5.056-28.662 7.125-50.69 21.952 9.446-11.212 15.234-20.673 14.992-26.656-.214-5.279-31.071 11.547-47.975 28.89-12.679 13.007-19.197 24.812-17.627 30.493l-.005.001zm68.059-8.921l3.466-1.862c-.295.831-.244 1.544.194 2.117-1.304-.12-2.519-.201-3.66-.255zm-89.341-12.577c2.144.144 3.853-.714 4.97-2.666.459-.803.831-1.592 1.11-2.405 6.174 1.542 19.155-4.776 33.303-16.942 18.519-15.926 36.003-44.495 30.185-44.513s-14.353 4.266-24.484 11.355c16.155-20.607 29.364-49.992 23.706-48.367-4.633 1.331-10.737 5.696-17.786 12.23 12.362-23.178 20.581-49.579 15.467-46.637-3.634 2.092-8.009 6.265-12.904 12.049 8.295-23.227 12.417-45.274 7.998-41.385-2.821 2.483-5.991 6.401-9.421 11.503 5.949-24.461 7.78-46.501 3.703-41.508-4.798 5.873-10.284 16.774-16.053 30.839l.116-.731c5.159-32.483 3.155-68.432-1.014-60.199-5.969 11.79-11.549 35.235-16.366 63.481-1.053-19.564-3.104-35.126-6.46-43.419-2.563-6.332-8.355 19.678-9.77 47.238-1.764-6.105-3.65-10.955-5.663-14.185-3.813-6.12-7.422 30.607-3.827 60.657-3.36-8.501-6.736-14.864-10.026-18.272-3.54-3.666-4.191 17.498-1.045 40.053-3.93-6.185-7.667-10.607-11.07-12.688-4.796-2.932-1.558 26.949 7.02 50.6-8.752-11.667-16.825-19.63-23.156-21.301-5.585-1.475 2.309 30.414 15.128 50.439 9.614 15.018 19.908 24.343 26.339 24.775zm12.06-61.475l-.858-3.573c.776.516 1.538.695 2.274.498-.535 1.086-1.001 2.108-1.416 3.075z"/></g><use href="#H" opacity=".284" fill="#000"/><path d="M309.929 278.75c-1.086-2.274-3.156-3.515-6.232-3.504-1.265.004-2.462.09-3.634.285-1.73-7.216-17.211-16.749-40.623-24.025-30.646-9.524-76.344-10.532-72.933-4.581 3.39 5.917 13.747 12.145 28.501 18.312-35.049-4.349-79.233-.513-73.883 4.307 4.381 3.948 13.386 7.609 25.636 10.955-35.996 1.042-73.548 8.217-66.884 11.704 4.734 2.478 12.483 4.487 22.533 6.075-33.66 5.225-63.396 14.016-55.974 16.235 4.739 1.417 11.46 2.344 19.802 2.839-33.804 8.349-62.18 19.474-53.595 20.696 10.104 1.437 26.84.612 47.661-1.79l-.975.313c-43.275 13.886-86.621 37.132-73.96 36.535 18.122-.856 50.45-8.983 88.277-20.72-23.61 12.613-41.678 23.886-49.971 32.204-6.332 6.351 29.3-3.071 64.267-17.877-6.521 5.401-11.416 10.188-14.23 14.149-5.331 7.503 42.286-10.468 77.385-31.86-8.547 8.445-14.437 15.644-16.719 21.015-2.453 5.777 24.145-6.038 50.223-22.551-5.344 7.661-8.618 14.085-9.187 18.789-.803 6.627 34.296-14.301 58.528-37.01-9.289 15.819-14.391 28.76-12.728 36.213 1.468 6.575 36.308-20.293 53.553-45.194 12.932-18.675 18.415-34.69 15.157-41.514h.006zm-83.252 23.935l-3.92 2.983c.181-1.097-.046-1.981-.725-2.616a104.76 104.76 0 0 0 4.645-.367z" fill="#96c769"/><path d="M370.276 378.297c-5.914 30.942-29.103 41.175-54.821 37.121s-44.275-20.867-38.363-51.808 31.587-52.763 57.306-48.71 41.79 32.456 35.878 63.397z" fill="url(#E)"/><g fill="#96c769"><path d="M342.392 277.122c-2.352 1.258-3.453 3.276-3.063 6.048.161 1.139.402 2.207.759 3.239-7.673 2.447-16.187 17.571-21.259 39.564-6.638 28.79-2.12 70.096 3.965 66.29 6.049-3.783 11.581-13.882 16.505-27.937-.441 32.122 9.187 71.469 13.796 66.056 3.776-4.434 6.668-13 8.818-24.451 5.567 32.312 18.027 65.269 21.018 58.836 2.126-4.571 3.368-11.801 3.867-21.054 9.851 29.692 23.116 55.412 24.628 48.447.966-4.445 1.152-10.616.666-18.194 13.282 29.437 28.932 53.643 29.21 45.753.328-9.283-2.632-24.264-7.819-42.734l.462.84c20.499 37.289 51.236 73.495 49.024 62.159-3.164-16.226-16.022-44.362-33.501-77.007 16.687 19.726 31.229 34.622 41.339 41.07 7.721 4.925-6.959-26.028-27.442-55.719 6.706 5.212 12.539 9.035 17.214 11.084 8.855 3.881-16.642-36.821-44.338-65.822 10.28 6.664 18.873 11.088 25.023 12.483 6.616 1.5-9.569-21.017-30.823-42.49 9.03 3.874 16.454 6.034 21.664 5.969 7.341-.091-19.847-29.149-47.644-48.196 18.431 6.426 33.2 9.432 41.141 7.017 7.005-2.132-26.644-30.226-55.978-42.703-22-9.357-40.176-12.328-47.231-8.553l-.001.005zm36.398 72.084l3.743 3.166c-1.221-.029-2.159.285-2.77.974-.307-1.485-.635-2.859-.973-4.14zm-13.404-80.055c2.341 1.275 4.819 1.188 7.313-.447 1.026-.673 1.944-1.376 2.771-2.154 6.035 4.951 24.733 4.515 48.43-1.951 31.021-8.464 68.817-31.809 62.229-34.844-6.55-3.017-18.963-2.603-34.912.186 31.282-15 64.742-41.482 57.302-42.573-6.093-.892-15.761.894-27.865 4.652 28.595-19.883 54.52-45.574 46.867-44.886-5.437.489-13.024 2.954-22.213 6.977 24.013-22.047 42.552-44.921 35.091-42.796-4.761 1.354-10.82 4.155-17.918 8.164 22.128-24.664 38.062-48.716 30.298-45.166-9.136 4.175-22.212 13.696-37.601 26.66l.592-.77c26.275-34.173 46.606-75.994 36.699-68.813-14.184 10.279-35.252 33.982-58.477 63.526 11.106-22.738 18.565-41.458 19.972-52.606 1.074-8.512-21.851 17.991-40.784 48.521 1.837-7.84 2.747-14.32 2.495-19.028-.478-8.919-27.663 30.871-42.479 66.824 1.533-11.385 1.705-20.353.115-25.926-1.71-5.994-15.756 17.678-26.368 44.894-.568-9.055-2.027-16.008-4.58-20.133-3.597-5.812-18.711 29.762-23.849 61.037-2.593-17.772-6.744-30.99-12.875-36.167-5.409-4.569-16.503 35.699-14.552 65.06 1.463 22.02 7.275 37.936 14.299 41.759zm52.333-63.484l1.274-4.499c.556.988 1.307 1.586 2.266 1.744a93.08 93.08 0 0 0-3.54 2.755zm-95.77 55.412c2.31-1.322 3.344-3.368 2.863-6.128-.197-1.135-.473-2.196-.864-3.218 7.59-2.653 15.604-18 19.953-40.12 5.693-28.956-.176-70.12-6.134-66.153-5.922 3.944-11.121 14.189-15.583 28.371-.611-32.12-11.522-71.189-15.953-65.654-3.628 4.534-6.24 13.174-8.013 24.678-6.623-32.148-20.157-64.752-22.937-58.242-1.975 4.626-2.979 11.887-3.175 21.149C261.287 66.35 247.186 41 245.902 48.003c-.819 4.469-.803 10.643-.07 18.204-14.24-29.066-30.676-52.84-30.695-44.946-.024 9.287 3.426 24.182 9.214 42.503l-.489-.827c-21.71-36.72-53.619-72.077-51.036-60.807 3.694 16.134 17.468 43.908 36.006 76.067-17.325-19.266-32.349-33.764-42.667-39.938-7.878-4.714 7.809 25.828 29.255 54.954-6.874-5.029-12.83-8.692-17.569-10.614-8.979-3.641 17.84 36.356 46.473 64.595-10.494-6.383-19.228-10.573-25.421-11.801-6.662-1.321 10.253 20.749 32.201 41.637-9.153-3.628-16.644-5.587-21.85-5.381-7.335.29 20.793 28.6 49.202 46.889-18.633-5.925-33.494-8.531-41.35-5.902-6.932 2.319 27.622 29.492 57.351 41.172 22.297 8.758 40.561 11.237 47.49 7.273l.002-.003zm-38.743-71.071l-3.845-3.063c1.222-.005 2.149-.343 2.737-1.049a79.21 79.21 0 0 0 1.108 4.112z"/></g></g><defs><filter id="A" x="264.966" y="351.694" width="81.464" height="831.593" filterUnits="userSpaceOnUse" color-interpolation-filters="sRGB"><feFlood flood-opacity="0"/><feBlend in="SourceGraphic"/><feGaussianBlur stdDeviation=".524"/></filter><linearGradient id="B" x1="305.85" y1="1188.05" x2="347.495" y2="487.583" href="#I"><stop stop-color="#be894f"/><stop offset="1" stop-color="#553b1f"/></linearGradient><linearGradient id="C" x1="589.953" y1="-327.442" x2="673.06" y2="-285.931" href="#I"><stop stop-color="#638225"/><stop offset="1" stop-color="#bad681"/></linearGradient><linearGradient id="D" x1="812.632" y1="-44.73" x2="850.133" y2="15.379" href="#I"><stop stop-color="#638225"/><stop offset="1" stop-color="#bad681"/></linearGradient><linearGradient id="E" x1="421.577" y1="-392.331" x2="514.175" y2="-374.632" href="#I"><stop stop-color="#638225"/><stop offset="1" stop-color="#bad681"/></linearGradient><clipPath id="F"><path fill="#fff" d="M0 0h620v1184H0z"/></clipPath><path id="G" d="M327.051 406.742c-14.285 28.6-39.56 33.214-63.333 23.422s-37.083-30.3-22.797-58.899 45.173-43.862 68.946-34.072 31.47 40.947 17.184 69.549z"/><path id="H" d="M297.454 360.196c-22.845 14.252-42.294 7.913-54.14-7.745s-11.628-34.737 11.217-48.989 51.001-13.112 62.848 2.547 2.919 39.933-19.925 54.187z"/><linearGradient id="I" gradientUnits="userSpaceOnUse"/></defs></svg>