<?xml version='1.0' encoding='utf-8'?>
<svg xmlns="http://www.w3.org/2000/svg" width="210mm" height="297mm" viewBox="0 0 210 297" version="1.1" id="svg7860"> <defs id="defs7857"> <filter style="color-interpolation-filters:sRGB;" id="filter9525" x="0" y="0" width="1" height="1"> <feTurbulence seed="10" baseFrequency="0.12 0.02" numOctaves="10" type="fractalNoise" id="feTurbulence9503"/> <feColorMatrix values="1 0 0 0 0 0 1 0 0 0 0 0 1 0 0 0 0 0 0.7 0 " result="result5" id="feColorMatrix9505"/> <feComposite in2="result5" operator="out" in="SourceGraphic" id="feComposite9507"/> <feMorphology result="result3" radius="1.3" operator="dilate" id="feMorphology9509"/> <feTurbulence seed="25" type="turbulence" baseFrequency="0.08 0.05" numOctaves="8" result="result91" id="feTurbulence9511"/> <feDisplacementMap result="result4" scale="5" yChannelSelector="G" xChannelSelector="R" in="result3" in2="result91" id="feDisplacementMap9513"/> <feSpecularLighting specularExponent="35" specularConstant="1" surfaceScale="2" lighting-color="rgb(255,255,255)" result="result1" in="result4" id="feSpecularLighting9517"> <feDistantLight azimuth="235" elevation="75" id="feDistantLight9515"/> </feSpecularLighting> <feComposite operator="in" result="result2" in="result1" in2="result4" id="feComposite9519"/> <feComposite k3="1" k2="1" operator="arithmetic" result="result4" in="result4" in2="result2" id="feComposite9521"/> <feBlend mode="multiply" in2="result4" id="feBlend9523"/> </filter> </defs> <g id="layer1"> <g id="g9501" style="filter:url(#filter9525)" transform="translate(-12.070197,-12.435962)"> <rect style="fill:#3b0000;fill-opacity:1;stroke-width:12;paint-order:markers stroke fill;stop-color:#000000" id="rect8344" width="166.42241" height="271.76233" x="-198.24384" y="25.237686" transform="scale(-1,1)"/> <path id="path8917" style="fill:#2b0000;fill-opacity:1;stroke:none;stroke-width:0.265;stroke-linecap:butt;stroke-linejoin:miter;stroke-dasharray:none;stroke-opacity:1" d="M 31.821313,25.237736 V 296.99996 h 48.455441 c 0.46636,-2.24168 0.604055,-4.55159 0.360184,-6.82852 -0.547029,-5.10744 -2.864844,-9.86887 -5.657535,-14.18002 -2.792692,-4.31115 -6.085421,-8.28088 -8.892481,-12.58269 -4.108064,-6.2956 -7.158735,-13.31308 -8.653218,-20.68039 -2.300233,-11.33939 -0.880165,-23.05148 -0.819589,-34.62166 0.02954,-5.64211 -0.267207,-11.2826 -0.216007,-16.92455 0.120651,-13.29508 2.167938,-26.487 3.379639,-39.72729 0.68947,-7.53387 1.112804,-15.11878 2.642732,-22.52783 1.700263,-8.23393 4.745752,-16.13946 6.525183,-24.35665 1.962986,-9.064819 2.360104,-18.382186 3.13521,-27.624669 0.796536,-9.498033 1.999673,-19.019459 1.370459,-28.530042 C 73.134401,43.625247 72.35173,38.8655 71.11814,34.225818 70.575563,31.148443 69.696047,28.137306 68.534835,25.237736 Z"/> <path id="path8921" style="fill:#520000;fill-opacity:1;stroke:none;stroke-width:0.265;stroke-linecap:butt;stroke-linejoin:miter;stroke-dasharray:none;stroke-opacity:1" d="m 170.48623,25.237736 c 0.35137,4.528593 2.00055,8.911587 4.06694,12.97957 2.32632,4.579676 5.18561,8.872252 7.52719,13.44414 3.42685,6.690845 5.72701,13.989359 6.4425,21.472591 1.10124,11.517816 -1.5363,23.016928 -2.80706,34.517273 -0.61968,5.60805 -0.91529,11.24863 -1.5565,16.85427 -1.51098,13.20949 -4.92706,26.11489 -7.51737,39.15575 -1.47391,7.42039 -2.68801,14.91902 -4.98471,22.12733 -2.55239,8.01085 -6.40831,15.55477 -9.03769,23.54068 -2.90062,8.8097 -4.27058,18.03393 -6.00842,27.1446 -1.78589,9.36257 -3.97826,18.7061 -4.34754,28.23032 -0.186,4.79726 0.0942,9.61242 0.83561,14.35571 0.43593,6.24403 2.19781,12.37933 5.06894,17.93999 h 40.07559 V 25.237736 Z"/> </g> </g> </svg>