<svg width="225" height="225" viewBox="0 0 225 225" fill="none" xmlns="http://www.w3.org/2000/svg">
<path d="M112.5 225C174.632 225 225 174.632 225 112.5C225 50.368 174.632 0 112.5 0C50.368 0 0 50.368 0 112.5C0 174.632 50.368 225 112.5 225Z" fill="black"/>
<path d="M112.5 225C174.632 225 225 174.632 225 112.5C225 50.368 174.632 0 112.5 0C50.368 0 0 50.368 0 112.5C0 174.632 50.368 225 112.5 225Z" fill="#209F2E" fill-opacity="0.5"/>
<rect x="1" y="22" width="190" height="190" rx="95" fill="#0A0B15" fill-opacity="0.6"/>
<rect x="9" y="81" width="120" height="120" rx="60" fill="black"/>
<path d="M112.5 119C133.763 119 151 101.763 151 80.5C151 59.237 133.763 42 112.5 42C91.237 42 74 59.237 74 80.5C74 101.763 91.237 119 112.5 119Z" fill="#209F2E"/>
<path d="M111.504 127C102.377 127 93.3387 128.28 84.906 130.768C76.4733 133.255 68.8111 136.902 62.357 141.499C55.9029 146.095 50.7833 151.552 47.2904 157.558C43.7975 163.564 41.9999 170 42 176.501C42.024 177.345 42.731 177.997 43.5758 177.994L180.152 177.424C180.6 177.422 180.973 177.078 181 176.631V176.336C180.939 163.238 173.591 150.69 160.564 141.443C147.538 132.195 129.897 127.001 111.504 127Z" fill="#209F2E"/>
</svg>
