<svg width="145" height="94" viewBox="0 0 145 94" fill="none" xmlns="http://www.w3.org/2000/svg">
<path d="M91.0083 22.1347C83.6919 8.92992 69.6832 0 53.6037 0C29.9627 0 10.7979 19.3036 10.7979 43.1157C10.7979 44.5175 10.8643 45.9036 10.9941 47.2711C11.5334 52.9511 8.29194 58.7915 4.55655 63.1044C1.71884 66.3808 0 70.6659 0 75.3554C0 85.6525 8.2875 94 18.5106 94H126.489C136.713 94 145 85.6525 145 75.3554C145 68.8075 141.649 63.048 136.58 59.7219C137.043 57.4968 137.287 55.1903 137.287 52.8264C137.287 34.3774 122.439 19.4215 104.122 19.4215C99.4643 19.4215 95.0306 20.3887 91.0083 22.1347Z" fill="white"/>
</svg>
