<?xml version="1.0" encoding="UTF-8" standalone="no"?>
<!-- Created with Inkscape (http://www.inkscape.org/) -->

<svg
   width="210.00002mm"
   height="296.99997mm"
   viewBox="0 0 210.00002 296.99997"
   version="1.1"
   id="svg498"
   xml:space="preserve"
   xmlns:inkscape="http://www.inkscape.org/namespaces/inkscape"
   xmlns:sodipodi="http://sodipodi.sourceforge.net/DTD/sodipodi-0.dtd"
   xmlns="http://www.w3.org/2000/svg"
   xmlns:svg="http://www.w3.org/2000/svg"><sodipodi:namedview
     id="namedview500"
     pagecolor="#ffffff"
     bordercolor="#000000"
     borderopacity="0.25"
     inkscape:showpageshadow="2"
     inkscape:pageopacity="0.0"
     inkscape:pagecheckerboard="0"
     inkscape:deskcolor="#d1d1d1"
     inkscape:document-units="mm"
     showgrid="false" /><defs
     id="defs495"><radialGradient
       id="paint0_radial_40_16"
       cx="0"
       cy="0"
       r="1"
       gradientUnits="userSpaceOnUse"
       gradientTransform="matrix(-102.50215,-416.9998,470.71579,-115.706,572.5,408.5)"><stop
         stop-color="#67B873"
         stop-opacity="0"
         id="stop515" /><stop
         offset="1"
         stop-color="#67B873"
         id="stop517" /></radialGradient></defs><g
     inkscape:label="Warstwa 1"
     inkscape:groupmode="layer"
     id="layer1"><g
       style="fill:none"
       id="g511"
       transform="matrix(0.26458333,0,0,0.26458333,6.7786165e-6,-0.22962599)"><path
         d="m 170.908,131.468 c -10.223,41.384 -33.835,79.155 -68.502,106.698 l -60.2088,47.835 c -44.98605,35.741 -55.4965,99.792 -24.2921,148.035 13.6023,21.03 19.7376,46.023 17.4197,70.961 l -2.0984,22.576 c -5.5086,59.264 19.1209,117.332 65.558,154.563 L 137.903,713.5 h 700 V 454 L 530.828,9.50012 C 522.75,-2.19355 505.395,-1.96598 497.626,9.93546 L 325.903,273 280.403,240 204.89,130.506 c -7.37,-10.686 -22.808,-11.629 -31.424,-1.921 z"
         fill="#7acf87"
         id="path502" /></g><g
       style="fill:none"
       id="g530"
       transform="matrix(0.26458333,0,0,0.26458333,8.7312568,-0.22962599)"><path
         d="M 482.016,0.877899 C 486.301,7.23659 489.36,14.3403 491.035,21.8229 L 539.73,239.357 c 6.217,27.77 23.97,51.576 48.814,65.455 l 38.081,21.275 c 8.021,4.481 14.322,11.505 17.909,19.964 10.593,24.984 -5.337,53.229 -32.198,57.089 l -12.853,1.847 c -41.766,6.003 -58.879,57.014 -29.183,86.99 l 24.689,24.922 c 31.695,31.994 24.758,85.281 -14.072,108.094 l -11.974,7.034 c -19.969,11.732 -44.05,14.212 -65.991,6.795 L 387.847,599.913 c -18.18,-6.145 -34.208,-17.392 -46.171,-32.398 L 312.45,530.854 c -5.588,-7.01 -15.158,-9.445 -23.416,-5.959 L 203.5,561 c -40.955,11.038 -83.993,-8.463 -102.698,-46.533 l -0.563,-1.144 C 95.2066,503.079 82.0494,500.019 73.0127,506.99 L 0.483154,562.942 C 5.47903,609.299 28.6644,652.375 65.7844,682.136 L 104.903,713.5 h 700 V 454 L 497.828,9.50012 C 493.982,3.9322 488.032,1.06703 482.016,0.877899 Z"
         fill="url(#paint0_radial_40_16)"
         id="path513"
         style="fill:url(#paint0_radial_40_16)" /></g><g
       style="fill:none"
       id="g541"
       transform="matrix(0.26458333,0,0,0.26458333,41.539588,31.784957)"><path
         fill-rule="evenodd"
         clip-rule="evenodd"
         d="M 26.5571,1.45353 26.58,1.48502 C 33.7983,11.4102 39.128,22.5793 42.3027,34.4341 L 71.8888,144.914 c 3.3375,12.463 3.034,25.621 -0.8745,37.916 l -12.2691,38.597 c -3.284,10.331 -13.7364,16.609 -24.3993,14.655 L 14.8995,232.52 c -10.6587,-1.953 -18.64308,9.574 -13.06794,18.866 2.27588,3.793 6.37505,6.114 10.79854,6.114 h 27.085 c 16.1771,0 31.6788,-6.486 43.0356,-18.007 L 169,152 169.014,151.831 168.903,152 123.403,119 47.8897,9.50567 C 42.9238,2.30517 34.2942,-0.471684 26.5571,1.45353 Z"
         fill="#67b873"
         id="path532" /></g></g></svg>
