<?xml version="1.0" encoding="UTF-8" standalone="no"?>
<!-- Created with Inkscape (http://www.inkscape.org/) -->

<svg
   width="196.15141mm"
   height="171.92966mm"
   viewBox="0 0 196.15141 171.92966"
   version="1.1"
   id="svg498"
   xml:space="preserve"
   inkscape:export-filename="sky.svg"
   inkscape:export-xdpi="96"
   inkscape:export-ydpi="96"
   xmlns:inkscape="http://www.inkscape.org/namespaces/inkscape"
   xmlns:sodipodi="http://sodipodi.sourceforge.net/DTD/sodipodi-0.dtd"
   xmlns="http://www.w3.org/2000/svg"
   xmlns:svg="http://www.w3.org/2000/svg"><sodipodi:namedview
     id="namedview500"
     pagecolor="#ffffff"
     bordercolor="#000000"
     borderopacity="0.25"
     inkscape:showpageshadow="2"
     inkscape:pageopacity="0.0"
     inkscape:pagecheckerboard="0"
     inkscape:deskcolor="#d1d1d1"
     inkscape:document-units="mm"
     showgrid="false" /><defs
     id="defs495"><linearGradient
       id="paint0_linear_40_24-2"
       x1="204.43201"
       y1="120"
       x2="204.43201"
       y2="275.00299"
       gradientUnits="userSpaceOnUse"><stop
         stop-color="#CFD9DA"
         id="stop288" /><stop
         offset="1"
         stop-color="#E1EBEC"
         id="stop290" /></linearGradient><filter
       id="filter0_f_40_24-2"
       x="120"
       y="99"
       width="175.522"
       height="144"
       filterUnits="userSpaceOnUse"
       color-interpolation-filters="sRGB"><feFlood
         flood-opacity="0"
         result="BackgroundImageFix"
         id="feFlood281" /><feBlend
         mode="normal"
         in="SourceGraphic"
         in2="BackgroundImageFix"
         result="shape"
         id="feBlend283" /><feGaussianBlur
         stdDeviation="10"
         result="effect1_foregroundBlur_40_24"
         id="feGaussianBlur285" /></filter></defs><g
     inkscape:label="Warstwa 1"
     inkscape:groupmode="layer"
     id="layer1"
     transform="translate(0,-0.98583151)"><g
       style="fill:none"
       id="g330"
       transform="matrix(0.26458333,0,0,0.26458333,-0.25460406,22.723715)"><path
         d="M 30.3008,331.972 142.97,567.654 c 51.995,-10.027 340.258,-72.658 374.408,-74.458 42.687,-2.249 219.872,-202.288 224.836,-218.889 3.972,-13.281 -102.939,16.211 -92.799,-59.63 L 363.086,44.9185 C 318.497,18.4823 267.818,4.05107 215.991,3.03154 L 81.785,0.391486 C 58.3801,-0.0689233 37.7888,15.7711 32.2312,38.5113 L 9.53977,131.357 C -6.89934,198.621 0.435742,269.5 30.3008,331.972 Z"
         fill="#e1ebec"
         id="path321" /></g><g
       style="fill:none"
       id="g253"
       transform="matrix(0.26458333,0,0,0.26458333,-0.25460406,25.369545)"><path
         d="M 50.4999,0.609863 43.1466,49.2117 C 35.9441,96.8167 38.4453,145.387 50.4999,192 v 0 c 0,11.319 6.3706,21.674 16.4737,26.778 l 47.0604,28.552 c 8.922,5.413 18.637,9.397 28.791,11.805 L 342.5,306.5 C 263.343,318.331 138.89,336.67 43.7331,350.07 L 30.3008,321.972 C 0.435732,259.5 -6.89935,188.621 9.53976,121.357 L 32.2312,28.5113 C 35.0294,17.0616 41.639,7.36112 50.4999,0.609863 Z"
         fill="#c3d0d1"
         id="path244" /></g><g
       style="fill:none"
       id="g319"
       transform="matrix(0.26458333,0,0,0.26458333,23.453396,0.88354552)"><path
         d="M 32.5,207 6,256 l 400.5,18 -9.123,-19.717 c -4.229,-9.141 -9.755,-17.624 -16.405,-25.188 l -6.45,-7.335 c -5.941,-6.756 -10.317,-14.742 -12.814,-23.386 -1.794,-6.21 -4.562,-12.096 -8.201,-17.438 l -11.307,-16.6 c -4.457,-6.543 -9.517,-12.653 -15.115,-18.251 L 304.149,123.149 C 295.09,114.09 282.802,109 269.99,109 h -2.884 c -9.437,0 -18.577,3.309 -25.827,9.351 l -9.116,7.597 c -5.94,4.949 -14.137,6.188 -21.273,3.214 -4.148,-1.728 -8.744,-2.063 -13.099,-0.956 l -8.248,2.097 c -9.453,2.403 -17.905,7.732 -24.149,15.225 l -6.416,7.699 c -4.257,5.108 -7.231,11.16 -8.673,17.651 l -0.659,2.965 c -0.757,3.405 -2.178,6.626 -4.183,9.479 -6.052,8.612 -16.629,12.821 -26.943,10.722 l -31.7381,-6.46 c -5.1612,-1.051 -10.4465,-1.356 -15.6944,-0.906 l -5.8055,0.498 C 51.8662,188.326 39.7494,195.653 32.5,207 Z"
         fill="#c3d0d1"
         id="path255" /><path
         d="m 346.548,192.742 c -0.672,-2.723 -2.235,-5.126 -4.311,-7.013 l -48.674,-44.242 c -3.46,-3.144 -7.194,-5.972 -11.159,-8.449 l -8.923,-5.574 c -9.767,-6.101 -21.367,-8.579 -32.775,-7 -16.672,2.308 -30.599,12.873 -37.582,27.441 -3.912,8.161 -11.232,15.136 -20.283,15.136 v 0 c -9.05,0 -15.98,6.993 -12.206,15.219 5.37,11.706 13.738,23.549 5.435,30.071 l -4.297,3.375 c -12.575,9.877 -26.283,0 -42.273,0 H 74 v 0 c -31.3701,0 -40.249,39.13 -71.09363,44.848 L 0.5,257 272.134,275.003 h 136.229 l -32.5,-32.824 -15.935,-21.226 c -6.311,-8.408 -10.862,-18.003 -13.38,-28.211 z"
         fill="url(#paint0_linear_40_24)"
         id="path257"
         style="fill:url(#paint0_linear_40_24-2)" /><path
         d="m 248.5,46 -5,3.5 c 1.667,1 5.3,3.1 6.5,3.5 1.2,0.4 7.833,-0.8333 11,-1.5 v -5 L 260,42 c 1.97,-1.9701 4.407,-3.388 7.026,-4.3369 1.371,-0.4966 2.474,-0.9613 2.474,-1.1631 0,-0.3311 0.457,-3.6534 0.803,-6.1116 0.13,-0.9252 0.197,-1.8573 0.197,-2.7916 v -4.0149 c 0,-3.5242 -1.618,-6.8532 -4.389,-9.0305 -1.706,-1.3402 -3.756,-2.1699 -5.914,-2.3931 l -5.017,-0.519 c -3.847,-0.3979 -7.629,1.2051 -10.019,4.2462 -1.092,1.3902 -1.842,3.0178 -2.188,4.7514 l -0.533,2.6639 c -0.293,1.4626 -0.44,2.9504 -0.44,4.442 v 7.8301 c 0,0.6097 0.142,1.211 0.415,1.7563 l 0.231,0.4626 c 0.523,1.0469 1.593,1.7082 2.764,1.7082 1.706,0 3.09,1.3835 3.09,3.0902 z"
         fill="#f7f2db"
         id="path259" /><path
         d="m 250.5,35 -4.849,-4.8488 c -1.721,-1.7209 -2.837,-3.9536 -3.181,-6.3629 l -0.051,-0.3526 c -0.273,-1.9162 0.013,-3.8707 0.824,-5.6282 l 0.844,-1.8301 c 0.584,-1.2653 0.637,-2.7139 0.147,-4.0188 -0.47,-1.2556 -0.439,-2.64664 0.089,-3.87925 0.44,-1.02567 1.197,-1.88288 2.161,-2.44514 l 3.834,-2.23642 c 0.454,-0.26465 0.883,-0.56975 1.281,-0.91157 1.849,-1.584789 4.277,-2.32438 6.695,-2.039851 l 2.342,0.275544 c 1.564,0.183993 3.084,0.638237 4.493,1.342477 1.888,0.9441 3.97,1.42532 6.081,1.37837 1.827,-0.04066 3.581,-0.06834 3.79,0.05724 1.486,0.89164 1.735,1.42993 1.798,1.92994 0.091,0.72509 0.318,1.41802 0.549,2.11131 0.758,2.27457 2.053,4.32575 3.678,6.08795 1.53,1.6576 2.975,3.3686 2.975,3.8708 v 3.9982 c 0,1.3309 -0.141,2.6579 -0.419,3.9593 -0.708,3.3013 -0.287,6.6793 0.349,9.9951 0.045,0.2322 0.07,0.4202 0.07,0.5474 0,1 -3,3 -3.5,3 -0.3,0 -2.113,0.7477 -3.635,1.4033 -0.896,0.3858 -1.664,1.0152 -2.231,1.8088 l -0.06,0.0838 c -0.988,1.3832 -2.583,2.2041 -4.283,2.2041 -0.524,0 -1.046,-0.0784 -1.547,-0.2327 l -4.419,-1.3595 c -0.865,-0.2661 -1.788,-0.2755 -2.658,-0.0269 -1.369,0.3912 -2.842,0.1369 -4.001,-0.6907 l -1.042,-0.7443 c -0.415,-0.2964 -0.798,-0.6355 -1.142,-1.0115 z"
         fill="#372917"
         id="path261" /><g
         filter="url(#filter0_f_40_24)"
         id="g265"
         style="filter:url(#filter0_f_40_24-2)"><path
           d="m 267.022,140.5 8.5,-12 -34,-9.5 -20,4.5 -34,32 c -4.334,5.167 -13.2,15.8 -14,17 -1,1.5 -3.5,13 -6,16 -2.5,3 -7.5,10 -10,11 -2,0.8 -7.5,3.333 -10,4.5 -2.667,1.333 -7.9,4.8 -7.5,8 0.5,4 8,9 8.5,9 0.5,0 22,2 23,2 0.8,0 12,-2.333 17.5,-3.5 l 3,-11.5 -1,-11 5.5,-6 2,-8 5.5,-16 9,-16.5 28.5,-5 z"
           fill="#000e31"
           fill-opacity="0.06"
           id="path263" /></g><path
         d="M 232.146,104.375 232,104.989 c 4.19,8.034 11.162,14.354 19.583,17.695 L 266.815,127 c 4.217,-3.346 7.123,-8.068 8.211,-13.34 l 2.233,-10.828 1.164,-17.3099 c 0.382,-5.6847 -0.174,-11.3936 -1.647,-16.8976 l -1.995,-7.4582 c -0.944,-3.5277 -2.761,-6.7609 -5.283,-9.4014 l -0.607,-0.6359 c -2.216,-2.3195 -4.999,-4.0207 -8.074,-4.9354 -2.641,-0.7857 -5.424,-0.9695 -8.145,-0.5376 l -3.486,0.553 c -2.161,0.3429 -4.257,1.0117 -6.217,1.9837 -2.077,1.0297 -3.975,2.3867 -5.621,4.019 l -5.348,5.3041 3.822,3.7898 c 2.618,2.5971 4.431,5.8951 5.221,9.4977 0.636,2.8985 0.589,5.9049 -0.137,8.7822 l -0.753,2.9897 c -0.502,1.9909 -1.193,3.9293 -2.064,5.7888 l -1.419,3.0316 c -1.948,4.1604 -3.464,8.5096 -4.524,12.9794 z"
         fill="#ffc788"
         id="path267" /><path
         d="m 243.455,79.4496 2.212,-8.4697 c 0.221,-0.848 0.333,-1.7208 0.333,-2.5972 0,-2.4941 -0.907,-4.9031 -2.551,-6.7785 l -3.884,-4.43 c -1.171,-1.3357 -2.989,-1.9076 -4.714,-1.4828 -1.538,0.3787 -2.787,1.4982 -3.331,2.986 l -2.592,7.0937 c -0.326,0.8901 -0.584,1.8033 -0.772,2.7321 l -0.97,4.774 c -1.21,5.9596 -3.065,11.7697 -5.534,17.3273 l -2.432,5.4766 -5.171,8.4879 C 211.401,108.916 210,113.909 210,119 l 7.024,-3.027 8.81,-7.809 c 5.776,-5.121 10.47,-11.3442 13.807,-18.3046 1.602,-3.34 2.879,-6.8259 3.814,-10.4098 z"
         fill="#f2b775"
         id="path269" /><path
         fill-rule="evenodd"
         clip-rule="evenodd"
         d="m 176.936,186.679 -0.087,2.383 1.69,-12.592 1.174,-19.605 c 1.017,-5.498 3.626,-10.608 7.525,-14.743 l 4.912,-5.208 3.18,-2.701 c 1.42,-1.205 2.706,-2.548 3.838,-4.008 2.022,-2.606 4.526,-4.831 7.386,-6.563 l 4.387,-2.657 c 1.395,-0.844 2.868,-1.563 4.4,-2.146 l 1.489,-0.566 c 3.597,-1.369 6.732,-3.667 9.057,-6.642 l 2.915,-3.728 c 0.699,-0.894 1.667,-1.558 2.772,-1.903 l 1.313,2.127 c 0.763,1.237 1.661,2.393 2.677,3.448 2.685,2.787 6.126,4.796 9.935,5.8 l 7.341,1.936 c 1.246,0.328 2.541,0.452 3.83,0.365 l 0.75,-0.051 c 2.942,-0.199 5.823,0.88 7.852,2.94 0.673,0.683 1.448,1.266 2.299,1.73 l 1.429,0.779 -6.5,9.926 -15.5,3.5 -30.515,4.663 -10.007,5.662 -10.056,16.881 -2.441,20.106 -5.415,9.091 -3.024,0.204 -0.313,4.144 c 0.541,0.24 1.039,0.573 1.467,0.99 l 0.204,0.199 c 0.653,0.636 1.109,1.433 1.318,2.304 l 0.946,3.944 c 0.384,1.601 -0.106,3.281 -1.301,4.456 l -0.418,0.411 c -0.858,0.843 -2.006,1.354 -3.229,1.437 l -7.226,0.488 -3.013,-0.085 c -0.892,-0.026 -1.775,0.179 -2.558,0.592 l -3.47,1.833 c -0.529,0.28 -1.107,0.465 -1.705,0.547 l -4.273,0.585 c -0.579,0.079 -1.167,0.06 -1.739,-0.056 l -4.195,-0.851 c -0.753,-0.153 -1.46,-0.471 -2.065,-0.93 l -2.422,-1.835 c -1.086,-0.823 -1.663,-2.121 -1.532,-3.445 0.173,-1.743 1.528,-3.162 3.317,-3.477 l 3.944,-0.693 c 0.524,-0.092 1.03,-0.264 1.499,-0.51 l 8.769,-4.603 c 0.409,-0.215 0.785,-0.484 1.117,-0.798 l 0.892,-0.847 c 0.939,-0.89 1.476,-2.101 1.493,-3.37 l 0.094,-6.844 c 0.011,-0.822 0.253,-1.627 0.7,-2.328 l 0.627,-0.981 c 0.407,-0.639 1.11,-1.049 1.886,-1.101 1.429,-0.097 2.63,1.019 2.58,2.396 z m 0.582,11.412 2.327,0.878 c -0.846,-0.068 -1.656,-0.373 -2.327,-0.878 z"
         fill="#252525"
         fill-opacity="0.4"
         id="path271" /><path
         d="m 172.162,187.253 -2.162,6.018 9.943,4.729 0.865,-6.018 h 3.026 l 6.052,-9.027 3.891,-20.634 11.24,-16.764 10.376,-5.159 29.83,-4.298 14.266,-2.58 9.511,-8.167 -1.366,-0.906 c -0.814,-0.539 -1.543,-1.197 -2.164,-1.951 -1.871,-2.274 -4.661,-3.591 -7.605,-3.591 h -0.75 c -1.29,0 -2.571,-0.218 -3.788,-0.645 l -7.169,-2.516 c -3.72,-1.306 -7,-3.625 -9.471,-6.696 -0.936,-1.163 -1.746,-2.422 -2.416,-3.755 L 233.118,103 c -1.126,0.28 -2.137,0.9 -2.898,1.775 l -3.173,3.654 c -2.532,2.915 -5.821,5.074 -9.502,6.239 l -1.524,0.482 c -1.568,0.496 -3.087,1.137 -4.537,1.913 l -4.561,2.442 c -2.974,1.592 -5.629,3.719 -7.832,6.275 -1.233,1.431 -2.612,2.731 -4.113,3.879 l -3.362,2.572 -5.27,5.045 c -4.183,4.006 -7.152,9.111 -8.564,14.729 l -2.594,20.203 z"
         fill="#d1dbb4"
         id="path273" /><path
         d="m 145.639,208.409 2.278,2.069 c 0.57,0.516 1.25,0.895 1.989,1.106 l 4.116,1.174 c 0.561,0.16 1.145,0.221 1.727,0.179 l 4.298,-0.306 c 0.601,-0.043 1.19,-0.194 1.737,-0.447 l 3.589,-1.654 c 0.809,-0.373 1.703,-0.523 2.59,-0.434 l 2.994,0.299 h 7.231 c 1.223,0 2.404,-0.449 3.319,-1.261 l 0.446,-0.396 c 1.276,-1.132 1.886,-2.836 1.62,-4.52 l -0.656,-4.147 c -0.145,-0.915 -0.541,-1.772 -1.144,-2.476 l -0.19,-0.22 c -0.949,-1.107 -2.335,-1.743 -3.794,-1.743 h -2.265 c -1.246,0 -2.433,-0.533 -3.261,-1.464 l -0.094,-0.105 c -1.234,-1.386 -1.405,-3.421 -0.42,-4.995 0.337,-0.538 0.546,-1.146 0.613,-1.778 l 0.488,-4.63 c 0.15,-1.422 -0.965,-2.66 -2.394,-2.66 -0.778,0 -1.507,0.375 -1.959,1.007 l -0.695,0.972 c -0.496,0.694 -0.796,1.509 -0.867,2.36 l -0.59,7.075 c -0.11,1.311 -0.732,2.526 -1.731,3.382 l -0.951,0.814 c -0.353,0.302 -0.747,0.554 -1.17,0.748 l -9.067,4.15 c -0.484,0.221 -1,0.364 -1.529,0.423 l -3.978,0.441 c -1.804,0.2 -3.256,1.575 -3.555,3.365 -0.227,1.361 0.254,2.745 1.275,3.672 z"
         fill="#575548"
         id="path275" /><path
         fill-rule="evenodd"
         clip-rule="evenodd"
         d="m 170,193.271 2.162,-6.018 0.325,-1.615 c 2.855,2.194 6.699,5.2 8.284,6.604 L 179.943,198 Z"
         fill="#f6f2db"
         id="path277" /><path
         d="m 247,48 c -0.5,-0.5 -1.3,-0.9 -2.5,-0.5 l 4,-1.5 h 4 l 8.5,2 12.5,10 3.104,0.2699 c 5.49,0.4774 10.74,2.4665 15.168,5.7466 4.4,3.2593 7.818,7.6671 9.879,12.7403 l 1.275,3.1388 c 1.377,3.3884 2.304,6.9423 2.757,10.5714 L 307,101 l 1.467,7.336 c 0.323,1.612 -0.36,3.259 -1.728,4.171 -0.487,0.325 -0.898,0.751 -1.205,1.25 l -5.155,8.377 c -1.567,2.547 -3.668,4.725 -6.156,6.384 -3.406,2.27 -7.407,3.482 -11.5,3.482 h -1.93 c -4.365,0 -8.568,-1.656 -11.759,-4.635 -1.673,-1.561 -3.018,-3.44 -3.957,-5.526 L 262,115 l -5,-9 -20.5,-10.5 2,-3.5 22,12.5 c 3.159,-1.264 5.57,-3.899 6.547,-7.1581 L 268.5,92.5 269.574,86.2378 C 270.842,78.8357 270.476,71.2455 268.5,64 L 260,55.5 Z"
         fill="#575548"
         id="path279" /></g></g></svg>
