<?xml version="1.0" encoding="UTF-8" standalone="no"?>
<!DOCTYPE svg PUBLIC "-//W3C//DTD SVG 1.1//EN" "http://www.w3.org/Graphics/SVG/1.1/DTD/svg11.dtd">
<svg width="100%" height="100%" viewBox="0 0 28 19" version="1.1" xmlns="http://www.w3.org/2000/svg" xmlns:xlink="http://www.w3.org/1999/xlink" xml:space="preserve" xmlns:serif="http://www.serif.com/" style="fill-rule:evenodd;clip-rule:evenodd;stroke-linejoin:round;stroke-miterlimit:1.41421;">
    <g transform="matrix(0.717375,0,0,0.717375,-595.3,-1008)">
        <g transform="matrix(0.0858773,0,0,0.0888385,768.527,1344.69)">
            <path d="M1144.57,704.266C1144.57,700.637 1141.52,697.691 1137.77,697.691L744.454,697.691C740.7,697.691 737.652,700.637 737.652,704.266L737.652,778.909C737.652,782.538 740.7,785.484 744.454,785.484L1137.77,785.484C1141.52,785.484 1144.57,782.538 1144.57,778.909L1144.57,704.266Z" style="fill:white;"/>
        </g>
        <g transform="matrix(0.0858773,0,0,0.0888385,768.527,1360.29)">
            <path d="M1144.57,704.266C1144.57,700.637 1141.52,697.691 1137.77,697.691L744.454,697.691C740.7,697.691 737.652,700.637 737.652,704.266L737.652,778.909C737.652,782.538 740.7,785.484 744.454,785.484L1137.77,785.484C1141.52,785.484 1144.57,782.538 1144.57,778.909L1144.57,704.266Z" style="fill:white;"/>
        </g>
        <g transform="matrix(0.0858773,0,0,0.0958452,768.527,1347.29)">
            <path d="M1144.57,704.266C1144.57,700.637 1141.52,697.691 1137.77,697.691L744.454,697.691C740.7,697.691 737.652,700.637 737.652,704.266L737.652,778.909C737.652,782.538 740.7,785.484 744.454,785.484L1137.77,785.484C1141.52,785.484 1144.57,782.538 1144.57,778.909L1144.57,704.266Z" style="fill:rgb(244,248,23);"/>
        </g>
    </g>
</svg>
