<svg style="max-width: 300px;" version="1.1" id="Layer_1" xmlns="http://www.w3.org/2000/svg" xmlns:xlink="http://www.w3.org/1999/xlink" viewBox="0 0 512 512" xml:space="preserve" fill="#000000"><g id="SVGRepo_bgCarrier" stroke-width="0"></g><g id="SVGRepo_tracerCarrier" stroke-linecap="round" stroke-linejoin="round"></g><g id="SVGRepo_iconCarrier"> <rect x="8.17" y="14.979" style="fill:#FFCFB2;" width="89.949" height="32.681"></rect> 
                
    <g> <path style="fill:#169B62;" d="M438.468,467.064v32.681c0,4.512,3.658,8.17,8.17,8.17c4.512,0,8.17-3.658,8.17-8.17l-0.073-19.953 L438.468,467.064z"></path> <path style="fill:#169B62;" d="M400.34,449.619V482.3c0,4.512,3.658,8.17,8.17,8.17c4.512,0,8.17-3.658,8.17-8.17v-32.681H400.34z"></path> <path style="fill:#169B62;" d="M57.191,499.745c0,4.512,3.658,8.17,8.17,8.17s8.17-3.658,8.17-8.17v-32.681l-16.343,12.724 L57.191,499.745z"></path> <path style="fill:#169B62;" d="M95.319,482.3c0,4.512,3.658,8.17,8.17,8.17c4.512,0,8.17-3.658,8.17-8.17v-32.681h-16.34V482.3z"></path> <path style="fill:#169B62;" d="M247.83,499.745c0,4.512,3.658,8.17,8.17,8.17s8.17-3.658,8.17-8.17v-32.681h-16.34V499.745z"></path> <path style="fill:#169B62;" d="M285.957,482.3c0,4.512,3.658,8.17,8.17,8.17c4.512,0,8.17-3.658,8.17-8.17v-32.681h-16.34V482.3z"></path> <path style="fill:#169B62;" d="M209.702,482.3c0,4.512,3.658,8.17,8.17,8.17s8.17-3.658,8.17-8.17v-32.681h-16.34V482.3z"></path> <path style="fill:#169B62;" d="M171.549,464.855c0,4.512,3.658,8.17,8.17,8.17c4.512,0,8.17-3.658,8.17-8.17v-32.681l-16.34,5.247 V464.855z"></path> <path style="fill:#169B62;" d="M133.447,464.855c0,4.512,3.658,8.17,8.17,8.17s8.17-3.658,8.17-8.17V437.42l-16.34-5.246V464.855z"></path> <path style="fill:#169B62;" d="M324.085,464.855c0,4.512,3.658,8.17,8.17,8.17s8.17-3.658,8.17-8.17l0.025-27.436l-16.366-5.245 V464.855z"></path> <path style="fill:#169B62;" d="M362.213,437.419v27.437c0,4.512,3.658,8.17,8.17,8.17s8.17-3.658,8.17-8.17v-32.681 L362.213,437.419z"></path> 
    
    
    </g> <g> <path style="fill:#FFB88B;" d="M8.17,58.553c-4.512,0-8.17-3.658-8.17-8.17V12.255c0-4.512,3.658-8.17,8.17-8.17 s8.17,3.658,8.17,8.17v38.128C16.34,54.895,12.682,58.553,8.17,58.553z"></path> <rect x="413.881" y="14.979" style="fill:#FFB88B;" width="89.949" height="32.681"></rect> </g> <polygon style="fill:#86A5A6;" points="426.943,4.085 389.374,80.34 454.736,47.66 454.736,4.085 "></polygon> <g> <polygon style="fill:#AFC3C3;" points="57.189,4.085 57.189,47.66 245.101,80.34 426.943,47.66 426.943,4.085 "></polygon> <polygon style="fill:#AFC3C3;" points="454.736,47.66 454.736,479.792 426.943,467.064 345.799,249.867 426.943,47.66 "></polygon> </g> <path style="fill:#D7E1E1;" d="M362.213,407.663h-21.775c-0.022,0,0.013,29.756,0.013,29.756L256,476.048l-84.451-38.627v-29.758 h-21.762v29.757l-92.598,42.367l0.07-432.128c0.011,0,369.684,0,369.684,0v419.404l-64.73-29.645V407.663z"></path> 

<path style="fill:#FF883E;" d="M503.83,58.553c-4.512,0-8.17-3.658-8.17-8.17V12.255c0-4.512,3.658-8.17,8.17-8.17 s8.17,3.658,8.17,8.17v38.128C512,54.895,508.342,58.553,503.83,58.553z"></path> </g>
</svg>