<svg width="200" height="255" viewBox="0 0 200 255" fill="none" xmlns="http://www.w3.org/2000/svg"> 
  <defs>
    <linearGradient id="goldGradient" x1="0" y1="0" x2="0" y2="1">
      <stop offset="0%" stop-color="#3f624a"/>
      <stop offset="100%" stop-color="#a9a9a9"/>
    </linearGradient> 
    <linearGradient id="greenGradient" x1="0" y1="0" x2="0" y2="1">
      <stop offset="0%" stop-color="#252525"/>
      <stop offset="100%" stop-color="#2f2f2f"/>
    </linearGradient>
    <!-- Definicja filtra cienia -->
    <filter id="banner-shadow" x="-20%" y="-20%" width="140%" height="140%">
      <feGaussianBlur in="SourceAlpha" stdDeviation="5"/>
      <feOffset dx="0" dy="4"/>
      <feComponentTransfer>
        <feFuncA type="linear" slope="0.3"/>
      </feComponentTransfer>
      <feMerge>
        <feMergeNode/>
        <feMergeNode in="SourceGraphic"/>
      </feMerge>
    </filter>
  </defs> 
  <path d="M106.306 251.769C102.694 253.779 98.3011 253.788 94.6802 251.794L6.20929 203.05C2.37901 200.94 0 196.913 0 192.54L0 12.5C0 5.87258 5.37258 0.5 12 0.5L188 0.5C194.627 0.5 200 5.87258 200 12.5L200 192.574C200 196.929 197.641 200.942 193.835 203.06L106.306 251.769Z" fill="url(#goldGradient)" filter="url(#banner-shadow)"/> 
  <path d="M105.261 233.311C102.252 234.984 98.5938 234.992 95.5777 233.331L20.1769 191.817C16.9836 190.059 15 186.703 15 183.057L15 26C15 20.4772 19.4771 16 25 16L175 16C180.523 16 185 20.4771 185 26L185 183.086C185 186.716 183.033 190.061 179.86 191.825L105.261 233.311Z" fill="url(#greenGradient)"/>
</svg>
